<?xml version="1.0" encoding="UTF-8"?><svg id="Layer_2" xmlns="http://www.w3.org/2000/svg" viewBox="0 0 231.05 74.74"><defs><style>.cls-1,.cls-2{fill:none;}.cls-3,.cls-4,.cls-5{fill:#010101;}.cls-6,.cls-7,.cls-8{fill:#fff;}.cls-2{stroke-miterlimit:10;}.cls-2,.cls-4{stroke:#010101;stroke-linecap:round;stroke-width:1.36px;}.cls-7{letter-spacing:-.1em;}.cls-7,.cls-8{font-family:ArialMT, Arial;font-size:9.51px;}.cls-7,.cls-8,.cls-9{isolation:isolate;}.cls-4{stroke-linejoin:round;}.cls-8{letter-spacing:.02em;}.cls-10{fill:#a8aaad;}.cls-10,.cls-11,.cls-12,.cls-5{fill-rule:evenodd;}.cls-11{fill:#ec2227;}.cls-12{fill:#e7262d;}</style></defs><g id="Text"><g id="Layer_1-2"><g><path class="cls-3" d="m230.91,43.54c-.17.7-.52,1.41-1.07,2.09.05.47.02.96-.1,1.46-.2.82-.65,1.66-1.39,2.45-5.01,5.31-6.79,5.25-11.99,5.09-.92-.03-1.98-.07-3.31-.07-.21,0-1.3,1.2-2.68,2.72-1.86,2.04-4.16,4.56-6.59,5.99-1.21.71-2.45,1.15-3.68,1.13l-5.83-.09c-4.31-.06-4.5-1.73-4.03-3.53.09-.36.19-.67.29-.96.32-.96.62-1.84-.28-2.01-.5-.1-1.57.97-2.83,2.23-2.02,2.02-4.44,4.42-7.38,4.45-.62,0-1.45.06-2.33.12-2.64.16-5.77.35-7.65-.46-2.32.5-8.76.75-14.85.71-5.57-.04-10.92-.33-12.72-.91-2.83.96-5.94.84-8.82.71-.97-.04-1.92-.07-2.78-.07-3.5.03-4.04-1.13-4.42-1.93-.22-.46-.31-.65-5.45,2.19-3.33,2.38-6.62,2.9-9.66,3.39-2.23.36-4.33.69-6.04,1.77-2.55,1.6-5.62,3-8.71,3.86-.07.02-.16.04-.23.06-2.7.73-5.39,1.04-7.77.71-.37-.05-.72-.12-1.03-.19-.29-.07-.56-.15-.8-.24-.03,0-.06-.02-.09-.03-.99-.37-1.72-.89-2.22-1.51-.73-.9-.98-2-.86-3.19.1-1.09.52-2.23,1.15-3.33,0-.07,0-.14.01-.22.12-1.15.58-2.36,1.28-3.53.32-.52.69-1.03,1.09-1.52-.35-.17-.66-.26-.78-.19-.02,0-.05.02-.07.03-12.49,6.73-15.15,3-16.06,1.7-5.03,1.41-8.8-.36-10.4-1.11-.23-.1.22-.41-.08-.29-10.86,4.31-14.19,3.25-17.54,2.19-1.32-.41-2.64-.84-4.44-.87-.98-.02-1.84-.24-2.55-.48-.11.2-.22.39-.34.58-.01.78-.2,1.58-.54,2.35-.52,1.2-1.37,2.33-2.44,3.25-1.07.94-2.37,1.67-3.74,2.04-1.6.45-3.3.4-4.85-.37-.02,0-.04-.02-.05-.03-.58-.27-1.23-.55-1.9-.84-2.12-.9-4.41-1.88-5.97-3.4-.01-.01-.03-.02-.03-.03h0c-.23-.23-.7-.49-1.07-.69l-.07-.05s-.08-.05-.12-.08l-.6-.36c-.84.92-2.11,2.31-3.21,3-.04.03-.08.06-.13.09-.02,0-.03.02-.05.03-2.05,1.17-4.63,1.49-6.67.94-1.05-.29-1.96-.8-2.59-1.55-.63-.75-.98-1.73-.88-2.94.07-.97.43-2.1,1.16-3.38,0-.05,0-.11.01-.16.12-1.64,1.06-3.72,3.2-6.21.2-.63.53-1.25.96-1.85-.01-.16-.01-.33,0-.5-.12-.46-.13-.94-.06-1.43.13-.88.54-1.82,1.14-2.72-.02-.26,0-.54.03-.82.17-1.16.82-2.41,1.77-3.57.92-1.13,2.13-2.19,3.43-3,1.23-.77,2.56-1.32,3.82-1.53l.68-.92s0-.01.01-.02l.71-1.29c.03-.05.06-.1.1-.15.38-.56.82-1.07,1.3-1.56.51-.51,1.08-.98,1.71-1.42,0,0,0,0,.01-.01,2.22-1.58,4.48-2.44,6.76-2.9,2.25-.45,4.5-.5,6.79-.46h.03c1.83.05,3.54.6,5.15,1.13.49.16.98.32,1.48.46,0,0,.01,0,.03,0,.88.24,1.77.59,2.62,1.01.79.39,1.53.86,2.15,1.35.03.02.07.04.1.07,0,0,.02.01.03.02.72.58,1.36,1.27,1.83,2.04.35.56.61,1.18.75,1.84,1.39-.1,2.33.18,3.41.49.24.07.5.14.76.21h12.69c.17-.48.42-.95.75-1.4.46-.63,1.07-1.21,1.85-1.7l17.17-10.77h-35.66c-1.26.91-2.66,1.79-4.11,2.25-1.68.53-3.36.5-4.84-.67-4.44-3.48-6.85-7.26-7.47-10.66-.35-1.87-.16-3.64.53-5.2.15-.33.32-.66.51-.97.09-.9.31-1.77.67-2.57.71-1.6,1.94-2.97,3.64-3.99,2.02-1.2,4.92-2.87,8.16-2.87l45.7.03c4.37,0,5.86,1.38,7.93,1.77.64-.48,1.34-.88,2.07-1.18.84-.34,1.71-.54,2.57-.54h77.02s.07,0,.12,0c6.24-.19,9.68,1.96,13.8,4.55,1.1.69,2.24,1.41,3.55,2.14,1.26.71,2.02,1.55,2.38,2.47.5,1.24.26,2.59-.42,3.93-.14.28-.31.56-.49.83.04.89-.22,1.81-.69,2.72-.66,1.27-1.74,2.52-2.98,3.61-1.92,1.7-4.28,3.05-6.07,3.58-.03.01-.07.02-.1.03h0l-6.34,1.79c.35.16.7.31,1.05.47,6.89,3.09,13.32,5.97,13.92,8.09.56,1.95-.34,3.24-1.05,4.09.01.12.03.22.04.33,1.11.08,3.39.05,7.52,0,4.61-.06,11.46-.16,21.17-.16,1.28,0,2.32.37,3.1.98.59.47,1.02,1.08,1.25,1.77.22.69.26,1.46.07,2.24h0Z"/><path class="cls-6" d="m89.66,69.71c.27.07.56.12.88.16,2.19.31,4.71,0,7.23-.71,2.87-.8,5.73-2.11,8.12-3.6,2.09-1.31,4.37-1.68,6.82-2.06,2.81-.45,5.85-.94,8.77-3.04.04-.03.08-.06.13-.08,6.74-3.72,7-3.17,7.63-1.83.26.54.62,1.31,3.24,1.29.92,0,1.87.03,2.85.07,2.8.12,5.84.24,8.37-.71h0c.23-.08.48-.09.68,0,1.15.56,6.61.85,12.38.89,6.27.05,12.82-.2,14.61-.72h0c.21-.06.43-.05.61.04,1.47.77,4.54.58,7.1.42.87-.05,1.68-.1,2.42-.11,2.11-.02,4.18-2.09,5.93-3.84,1.68-1.67,3.1-3.09,4.58-2.81,2.17.42,1.68,1.86,1.16,3.43-.1.31-.21.62-.27.88-.29,1.11-.12,2.12,2.83,2.17l5.82.08c2.8.04,6.19-3.68,8.71-6.44,1.72-1.89,3.08-3.38,4.19-3.38,1.21,0,2.35.03,3.36.07,4.5.14,6.05.19,10.41-4.43.52-.56.84-1.15.99-1.75.14-.57.12-1.13-.05-1.63-.17-.5-.48-.95-.92-1.3-.55-.43-1.3-.7-2.21-.7-10.05,0-16.65.09-21.09.15-4.92.07-7.25.1-8.27-.07-1.87-.31-1.37-.88-.41-1.97.53-.61,1.39-1.6.94-3.14-.48-1.66-6.66-4.44-13.3-7.41-2.14-.96-4.33-1.94-6.57-3.01-.62-.29-.84-.46-.45-1.03.23-.33.45-.39.81-.48.07-.02.16-.04.22-.05l13.14-3.71s.05-.02.07-.03c1.52-.43,3.59-1.62,5.32-3.14,1.08-.95,2.01-2.02,2.56-3.09.52-1.02.71-2.04.35-2.96-.28-.71-.89-1.37-1.91-1.94-1.27-.71-2.46-1.46-3.59-2.17-3.91-2.45-7.17-4.5-12.89-4.33-.05,0-.1,0-.14,0h-76.91c-.61,0-1.22.14-1.81.38-.67.27-1.3.67-1.88,1.13-.23.21-.57.31-.86.25-1.66-.37-4.16-1.95-7.89-1.95-15.22,0-30.47.1-45.68.1-2.85,0-5.4,1.56-7.09,2.57-1.34.8-2.31,1.89-2.87,3.16-.58,1.32-.74,2.85-.43,4.49.58,3.17,2.87,6.72,7.08,10.03,1.05.82,2.21.85,3.36.49,1.26-.4,2.55-1.24,3.71-2.1.18-.15.42-.24.66-.24h38.14c1.8,0,4.22.56,6.52,1.36,2.44.85,4.78,1.99,6.15,3.03.18.12.26.33.2.56-.1.37-.52.68-.94.68h-8.5s-.07,0-.12,0c-.43-.06-.86-.14-1.3-.23-1.53-.31-3.16-.62-4.73.36l-17.39,10.91c-.55.35-.98.75-1.3,1.19-.34.46-.56.97-.67,1.47,0,.03,0,.05-.01.07-.09.37-.52.68-.94.68h-13.52c-.07,0-.14,0-.2-.03-.33-.08-.62-.17-.9-.25-1.05-.31-1.94-.56-3.31-.39-.41.08-.77-.12-.81-.46-.09-.71-.34-1.37-.71-1.97-.41-.67-.96-1.26-1.58-1.76-.02-.01-.05-.03-.07-.05-.58-.47-1.27-.9-2.01-1.28-.75-.37-1.55-.69-2.34-.9-.01,0-.03,0-.05-.01-.48-.14-1.02-.31-1.56-.49-1.49-.49-3.08-1.01-4.65-1.05h-.13c-2.15-.04-4.25.01-6.29.42-2,.4-3.97,1.15-5.91,2.52-.01.01-.03.02-.04.03-.02.01-.03.03-.05.04-.51.36-.98.75-1.39,1.17-.41.41-.78.85-1.09,1.32,0,.02-.02.03-.03.05,0,0-.01.02-.02.03l-.71,1.3h0s-.02.03-.03.05c-.03.04-.05.08-.09.12l-.89,1.2c-.16.22-.43.38-.73.41-1.07.1-2.25.58-3.38,1.28-1.11.69-2.13,1.59-2.92,2.56-.77.94-1.3,1.94-1.43,2.85-.07.54-.01,1.04.22,1.48h0c.1.2.07.46-.12.68-.54.65-.92,1.32-1.1,1.99-.16.6-.16,1.21.06,1.79.08.21.02.48-.2.69-2.82,2.87-3.99,5.11-4.12,6.77-.07.92.18,1.65.65,2.21.48.56,1.17.95,1.97,1.17,1.58.43,3.55.2,5.13-.67.03-.03.07-.05.12-.07.91-.52,2.22-1.98,3-2.85.17-.19.32-.35.4-.44h0c.3-.32.8-.42,1.12-.22l1.29.78h0s.05.03.07.05c.4.23.9.51,1.23.81.02.01.03.03.05.05,1.41,1.39,3.61,2.33,5.64,3.2.67.29,1.33.57,1.96.87.01,0,.03,0,.04.01.03.01.05.03.08.05,1.16.55,2.4.58,3.58.26,1.05-.29,2.04-.86,2.89-1.6.86-.75,1.56-1.66,1.97-2.63.47-1.09.58-2.23.17-3.27-.22-.58-.07-.95.45-1.22.52-.27.97-.1,1.64.18.71.29,1.79.72,3,.75,2.06.04,3.47.49,4.88.94,3.06.96,6.09,1.93,16.28-2.11.47-.18.85,0,1.45.28,1.48.7,5.05,2.37,9.62.92h0c.67-.21.87.07,1.2.54.73,1.04,2.87,4.06,13.99-1.93.02,0,.03-.02.05-.03.76-.41,1.96-.22,2.83.32.33.2.62.46.84.74.24.31.39.67.39,1.06.01.56-.26,1.14-.94,1.69-1.03.83-1.94,1.85-2.59,2.94-.6.98-.98,2-1.07,2.94-.09.91.1,1.76.65,2.45.37.46.91.85,1.65,1.13.03,0,.05.01.07.02.22.08.46.16.71.22h-.05Z"/><path class="cls-12" d="m101.46,4.75l76.4-.03s4.62-.19,6.71.98l8.12,5.07c1.26.66,2.04,1.56,1.13,3.02-1.03,1.65-3.25,2.21-3.25,2.21l-21.92,6.58s-3.44.99-1.49,1.84c1.96.85,24.38,11.49,24.38,11.49,2.59,1.37.48,3.06-3.06,3.06h-25.44s-6.46.16-8.86-1.58c-2.39-1.7-16.5-11.83-16.5-11.83-1.18-1.04-2-4.14,3.74-5.52l24.4-5.42c.06-.01.08-.1.01-.1l-41.59.02c-4.99-3.27-10.28-7.42-22.79-9.67-.12,0-.12-.13.02-.13h-.01Z"/><path class="cls-5" d="m43.8,4.72l47.08-.02c7.99,0,22.37,5.78,31.94,12.85l11.18,8.27c9.56,7.07,10.85,12.86,2.85,12.86l-67.51.03,17.54-11.17,2.53.75h17.32c3.82,0,4.1-2.25.62-4.99l-4.07-3.2c-3.48-2.74-11.05-4.41-14.87-4.41l-39.1.02c-1.82,0-3.68,1.29-4.57,2.09-8.12-6.51-8.5-13.06-.95-13.07h0Z"/><path class="cls-5" d="m126.04,50.65l-1.32,1.3,3.96-1.3h15.04c2.09.37,3.44,1.66-1.93,5.67l-9.2.06,4.19-3.24h-13.12l-5.81,5.46s-3.61,2.73-11.53,2.39l10.46-10.34s9.26,0,9.26,0Z"/><polygon class="cls-5" points="181.57 56.29 173.85 56.37 179.72 50.65 187.3 50.65 181.57 56.29"/><polygon class="cls-5" points="202.18 56.21 196.27 56.12 201.62 50.64 207.56 50.68 202.18 56.21"/><path class="cls-5" d="m166.86,52.7h-10.56c-1.19,0-2.68.4-3.31.89s-.19.89,1,.89h10.56c1.19,0,2.68-.4,3.31-.89s.19-.89-1-.89h0Zm-13.2-1.98c-4.18,0-11.97,5.75-5.4,5.75h19.8c3.4,0,7.84-3.12,9.53-5.81-7.98,0-15.94.06-23.93.06h0Z"/><polygon class="cls-5" points="131.91 49.69 139.84 47.08 150.39 47.08 143.09 49.69 131.91 49.69"/><polygon class="cls-5" points="120.22 47.08 129.5 47.08 126.85 49.69 117.58 49.69 120.22 47.08"/><path class="cls-5" d="m180.48,49.69l2.68-2.61h7.27l-1.45,1.43s6.97-2.01,12.49-1.26c2.12.2.36,1.82-1.05,2.44h-19.94Z"/><path class="cls-5" d="m178.09,49.69c.44-1.48-.32-2.61-3.12-2.61h-20.02l-3.91,2.61h27.06Z"/><path class="cls-1" d="m71.05,44.88h0c-.07-.03-.1-.03,0,0"/><path class="cls-10" d="m41.57,42.43h3.16c-.57.14-1.18.32-1.81.52-.9.29-1.85.63-2.82,1,.51-.41.97-.87,1.37-1.39.03-.05.07-.09.1-.14h0Z"/><path class="cls-10" d="m25.79,45.55h-2.97c.34-.34.71-.69,1.06-1.01.79-.73,1.53-1.43,1.99-2.11h8.21c-.07.05-.14.1-.23.15-.31.19-1.66.74-3.12,1.3-1.77.68-3.59,1.34-3.94,1.41-.14.03-.5.13-1,.27h0Z"/><path class="cls-10" d="m69.04,45.55h-4.25c.12-.24.19-.48.19-.73,0-.54-.26-.94-.93-1.13-.58-.16-1.6-.1-3.32.35-.71.18-2.21.68-3.41,1.08-.35.12-.69.23-1.09.36-.06.02-.13.04-.19.06h-9.44c.53-.24,1.06-.54,1.44-.86.86-.72,1.18-1.49.44-2.25l-.02-.02h23.96c-.37.16-.75.33-1.11.52-.72.38-1.37.85-1.71,1.37-.33.5-.51.9-.58,1.23h0Z"/><path class="cls-10" d="m106.66,45.55h-15.24c.01-.26-.03-.49-.13-.69-.2-.41-.58-.67-1.14-.77-.63-.12-1.56-.04-2.74.27-.39.1-1.45.57-2.81,1.2h-9.25c.58-.35,1.13-.74,1.58-1.12.44-.37.82-.75,1.07-1.08.23-.31.39-.62.45-.92h34.36c-.7.29-1.44.64-2.18,1-1.37.67-2.76,1.43-3.95,2.13h0Z"/><path class="cls-10" d="m202.32,49.73l4.09-4.17h-89.95c1.18-.9,2-1.9,1.87-2.93,0-.04,0-.07-.01-.11,0-.03-.01-.05-.02-.08h107.21l-3.17,3.12h-9.9l-4.08,4.17h-6.06.01Z"/><path class="cls-11" d="m22.09,41.29c.91-.33,2.74-1.35,3.08-.2.35,1.18-2.33,2.85-3.9,4.75,0,0-2.52,2.42-1.73,2.32,1.49-.18,6.82-1.8,7.23-1.88.77-.16,6.66-2.36,7.54-2.89,5.28-3.23-7.06-5.65-10.27-4.53-1.41.49-2.71,2.53-1.95,2.43h0Zm79.31,17.63c-.22,0-11.74,6.25-8.2,6.32,3.05.06,10.21-3.38,8.65-6.07-.1-.16-.24-.24-.46-.24h0Zm-3.36-7.14c1.82-.92,4.48-2.15,6.11-3.53,1.36-1.14,12.63-7.68,13.07-5.35.35,1.81-5.18,4.11-6.85,4.92-2.98,1.45-5.34,2.04-6.19,4.17-.41,1.02.16,2.47.93,3.1,1.58-.35,4.04-1.9,6.24-3.04l-.08,1.55c-.95.48-4.7,2.39-5.37,3.04-.47.45,3.63,4.26-6.58,8.58-3.49,1.48-6.66,2.45-9.03,1.52-1.86-.73,1.22-3.89,3-5.07,2.97-1.94,5.03-2.72,6.51-3.66.29-.18.49-.35.58-.5-.56-1.46-1.58-2.79-.82-4.59.03-.07.03-.17.01-.32-8.61,3.84-7.17,2.27-8.37-.45-.56-1.25-.65-1.12-2.95-.14-1.43.61-2.11.56-3,1.17-1.43.96-6.47,3.6-8.45,3.56-2.83-.05,3.64-4.77,4.3-5.55.39-.46,2.71-2.22.2-1.3-3.38,1.24-10.3,5.29-13.18,5.23-4.44-.09-2.02-1.25-3.17-3.72-.34-.73-2.91.73-3.76,1.16-.05.16-8.98,3.25-9.67,3.4-2.5.52-5.24.77-6.66-.99-1.23-1.54,2.81-3.51-.49-2-3.8,1.74-8.67,2.25-6.64-1.15.14-.22.2-.42.09-.63-.86.43-7.41,3.17-8.14,3.4-1.13.37-6.53,2.1-4.71-.71,1.47-2.27,2.58-.26,2.52-3.52.36-.17.73-.5,1.18-.72,1.34-.64,2.64-.69,3.92-1.56.15-.1,13.75-6.16,15.01-4.86.88.91-2.86,2.04-3.21,2.21-3.97,1.84-9.52,4.27-13.29,6.47l.07.15c2.68-.48,14.64-6.83,12.34-3.2-.61.96-2.39,2.96-.39,3,.69.01,2.1-.77,2.84-1.1v-.02c1.09-.46,1.51-.92,3.18-1.45,2.47-.77,4.86-2.06,7.26-2.84,1.11-.36,3.5-1.18,4.41-1.41,5.64-1.46,1.83,1.63,1.5,1.82-.84.48-3.81,1.23-5.67,1.95-1.41.55-7.11,2.13-7.22,4.43-.09,1.84,5.28.24,6.31-.1,5-1.6,4.12-1.8,9.2-3.93,2.2-.92,4.66-2.78,6.05-1.71,1.65,1.28-5.84,8.42,5.03,3.23,1.85-.88,10.39-5.11,11.48-5.4,3.25-.86,3.77.24,1.2,2.72-.84.8-4.81,3.94-4.61,4.33,1.92-.6,9.41-5.58,11.92-4.05,1.27.78-1.16,4.37,1.45,3.69.2-.05.39-.12.6-.23h0s0,.01,0,.01Zm-21.35-9.77c2.57.05-3.19,4.2-5.03,3.97-.98-.12-2.04.12-1.11-1.3.48-.73,2.64-1.58,3.34-1.78,1.15-.33,1.34-.92,2.8-.89h0Zm-57.55,8.14c-.8,1.24,3.93,4.67,4.84,5.52,1.41,1.32,3.44,2.95,5.18,4.03.96.6-.37,3.38-1.79,2.7-1.83-.88-5.46-2.18-6.91-3.63-1.01-1.02-2.9-1.77-3.95-2.74-2.67-2.49-2.34-2.15-5.25.96-.67.73-2.87,3.65-3.81,3.63-4.1-.08,2.24-5.13,3.54-7.13,1.3-1.99-3.6-2.06,2.97-4.22.74-.24,4.94-6.46,5.19-7.78.03-.14,1.75-2.91,1.98-3.27,1.77-2.72,6.43-3.51,9.03-3.31,1.69.13,3.94.49,5.51,1.15,2.26.94,7.75,2.42,4.94,6.05-2.64,3.41-9.14,4.12-11.11,5.09-1.77.86-9.95,2.34-10.35,2.96h0Z"/><polygon class="cls-10" points="17.68 42.44 14.19 42.44 12.26 45.31 15.66 45.31 17.68 42.44"/><path class="cls-4" d="m203.79,63.26v10.65h-107.39c.07-.02.16-.04.23-.06,3.08-.86,6.15-2.26,8.71-3.86,1.71-1.08,3.8-1.41,6.04-1.77,3.04-.49,6.33-1.01,9.66-3.39,5.13-2.83,5.22-2.65,5.45-2.19.38.8.92,1.96,4.42,1.93.86,0,1.81.03,2.78.07,2.88.12,5.99.25,8.82-.71,1.8.58,7.15.87,12.72.91,6.1.05,12.53-.2,14.85-.71,1.87.81,5.01.62,7.65.46.88-.05,1.7-.11,2.33-.12,2.94-.03,5.35-2.43,7.38-4.45,1.26-1.26,2.34-2.32,2.83-2.23.9.17.6,1.05.28,2.01-.1.3-.2.6-.29.96-.48,1.81-.28,3.47,4.03,3.53l5.83.09c1.24.02,2.47-.43,3.68-1.13h0Z"/><line class="cls-2" x1="96.4" y1="73.91" x2="88.48" y2="73.91"/><line class="cls-2" x1="203.79" y1="63.26" x2="203.79" y2="62.52"/><g class="cls-9"><text class="cls-8" transform="translate(116.47 71.08) scale(1.54 1)"><tspan x="0" y="0">AUSTRALI</tspan></text><text class="cls-7" transform="translate(190.42 71.08) scale(1.54 1)"><tspan x="0" y="0">A</tspan></text></g></g></g></g></svg>