<?xml version="1.0" encoding="UTF-8"?><svg id="Layer_2" xmlns="http://www.w3.org/2000/svg" viewBox="0 0 226.18 75.09"><defs><style>.cls-1{fill:#1a171b;}.cls-1,.cls-2,.cls-3,.cls-4{fill-rule:evenodd;}.cls-2{fill:#e1001a;}.cls-3{fill:#fdfdfd;}.cls-4{fill:#ffdb00;}</style></defs><g id="Layer_1-2"><g><path class="cls-1" d="m0,38.91C0,59.61,15.82,74.09,26.43,75.09h2.26c2.99-.31,5.34-1.95,6.44-5.13,2.91-8.45,1.12-7.53,7.39-7.53,1.58,0,1.82,1.97,2.21,3.21.49,1.55.9,2.9,1.46,4.42,1.22,3.32,3.58,4.76,6.33,5.03h2.11c4.65-.42,9.87-3.38,12.65-5.99,2.86-2.68,4.93-4.64,7.07-7.86,1.95-2.94.85-2.44,7.06-2.44,1.47,0,2.94,2.71,6.79,2.71h24.88c3.74,0,4.29-1.84,6.79-3.17,2.71,1.43,8.11,6.65,14.81,1.24.95-.77,1.47-1.3,2.04-2.48,1.25-2.58.18-2.38,4.86-2.38,2.56,0,1.11,7.24,10.86,7.24,2.19,0,2.5-.78,4.07-.81,1.3-.02,6.67,2.48,10.98-1.33,3.19-2.81,1.68-3.13,3.95-4.65,4.49,1.05,4.67,6.79,12.67,6.79,4.95,0,6.32-3.62,8.6-3.62.02,0,16.2,10.04,28.37-1.03,3.19-2.9,4.8-6.91,5.1-11.36v-3.22c-1.07-16.65-18.24-36.95-38.4-29.58-1.65.6-4.61,2.66-6.39,2.66s-6.46-8.2-14.68-2.47c-3.64,2.54-.87,3.83-6.58,3.83-1.95,0-7.13-9.7-15.77-4.01-3.04,2-3.2,6.81-6.79,2.14-6.49-8.44-17.14-.84-17.25-.84-1.17,0-2.99-2.71-6.79-2.71-5.75,0-15.46-.96-18.7,1.65-4.25,3.43-.62,3.77-6.18,3.77-2.89,0-1.83-5.43-11.76-5.43-5.06,0-3.88,3.75-8.26-.79C61.72,3.78,50.46,0,39.81,0S19.19,4.71,11.86,11.41C5.06,17.64,0,29.06,0,38.9h0Z"/><path class="cls-4" d="m28.05,69.57l4.56-13.58,16.83-.06,4.42,13.64c7.38-.8,13.54-7.4,16.26-12.09,5.92-10.18,7.21-22.82.99-34.04-4.93-8.89-16.16-17.84-25.74-17.49v8.05c5.59,2.34,7.07,2.11,11.8,5.73,1.18.91.92.81,2.08,1.98,1.34,1.35,1.12.98,2.14,2.39,8.02,11.19,6.87,24.58-1.23,31.93-1.26-1.97-9.64-26.87-11.41-31.5-3.71-9.71-12.41-8.82-15.42-.26-1.9,5.4-10.43,30.06-11.62,31.75-2.43-1.81-5.25-7.48-6.11-11.42-1.18-5.39-.44-10.03,1.56-14.78,4.48-10.61,11.53-12.56,19.34-15.8V5.95c-12.16-.35-26.91,13.18-29.36,27.91-2.71,16.3,7.92,34.1,20.91,35.71h0Z"/><path class="cls-3" d="m192.39,18.01c-19.88,5.03-2.17,42.52,18.62,37.36,10.94-2.72,9.34-16.12,4.69-24.53-3.28-5.92-12.6-15.54-23.31-12.83h0Z"/><path class="cls-3" d="m159.09,32.41l12.86,12.32c2.29,2.77,3.93,4.15,6.23,6.43,2.1,2.08,3.89,4.7,8.38,3.67,1.23-3.15-.77-7.13-1.85-10.65l-6.76-21.3c-2.46-7.5-7-4.93-7.62-3.52-.64,2.89,5.08,17.79,6.11,21.97-2.27-1.16-6.57-6.16-8.68-8.26-2.91-2.89-5.48-5.46-8.37-8.36-2.87-2.88-6.45-7.51-9.43-6.79-3.97.96-.09,8.95.89,12.18,1.31,4.34,2.6,8.39,4.04,12.7,1.28,3.85,2.17,10.21,5.32,11.87,2.05,1.08,4.9.85,4.84-2.16-.03-1.57-5.11-16.55-5.96-20.11h0Z"/><path class="cls-3" d="m133.05,47.67l12.81.06c1.79,1.87,5.11,10.21,9.28,6.98,2.02-1.57-.21-4.51-1.03-5.7l-17.09-26.32c-3.86-6.04-8.66-6.3-10.27-3.14-.87,1.71-2.03,30.52-1.02,32.99.62,1.53,2.98,3.56,5.64,2.4,2.32-1.02.98-4.48,1.69-7.26h0Z"/><path class="cls-3" d="m112.84,54.85c1.64-3.95-2.32-10.38-2.97-14.97,2.77.16,7.68.72,9.32-.77,1.18-2.66-.54-5.2-2.67-5.91-2.33-.78-6.41-.06-9.06-.42l-2.46-7.29c3.24-.14,8.37.37,10.78-.61.99-2.69-.34-5.51-2.58-6.41-1.71-.69-7.39-.32-9.6-.33-3.17-.01-7.2-.95-6.92,3.09l7.05,22.98c1.77,5.88,2.14,12.19,9.12,10.64h0Z"/><path class="cls-1" d="m195.28,25.14c-9.56,3.81,1.33,27.87,12.78,22.8,9.36-4.15-1.68-27.23-12.78-22.8"/><path class="cls-3" d="m91.83,55.01c3.99,0,10.8,1.03,11.52-1.82,1.63-6.43-9.69-5.2-13.39-5.2-1.15-5.58-4.01-13.34-5.75-19.09-.74-2.44-2.15-7.72-3.4-9.27-1.92-2.37-7.36-3.39-6.09,2.39l8.99,28.63c1.45,4,3.27,4.35,8.13,4.35h0Z"/><path class="cls-1" d="m35.87,45.85h10.11c-.63-2.87-3.87-13.52-5.2-15.06l-4.91,15.06h0Z"/><path class="cls-1" d="m132.55,40.57l8.95.13c-.83-2.25-7.41-12.63-8.91-14.44l-.04,14.31h0Z"/><polygon class="cls-2" points="39.08 13.77 42.73 13.87 42.82 5.64 39.12 5.55 39.08 13.77"/></g></g></svg>