<?xml version="1.0" encoding="UTF-8"?><svg id="Layer_2" xmlns="http://www.w3.org/2000/svg" viewBox="0 0 305.71 209.38"><defs><style>.cls-1{fill:#686f73;}</style></defs><g id="Layer_1-2"><g><path class="cls-1" d="m46.46,41.65c1.08-.64-.16-2.61.15-4.33.31-1.72-.24-9.68-.59-15.35-.35-5.66.82-11.78-2.92-15.98C39.37,1.8,30.47.91,28.04.85c-2.43-.06-2.61,1.84-3.5,1.33-.89-.51-1.86-.53-.99,1.52.88,2.05-.84,3.69-2.01,2.73-1.17-.96.68-4.4-.89-5.1-1.57-.7-4.66-.87-10-1.22C5.31-.24,3.04.23,1.24,1.78c0,0,1.23,4.01.31,8.67-.91,4.66-.53,6.44-.03,11.49.5,5.05-.68,6.61-1.06,11.11-.03.32-.04.66-.06,1.02v.25c-.11,4.87.94,13.46.05,18.61-.98,5.63-.31,17.93,1.45,17.98,1.77.04,7.23.71,10.86.27,3.63-.44,9.76-1.61,9.76-1.61,0,0-.29-2.44-.39-3.72-.1-1.28,1.31-1.12,1.3.96,0,2.08.28,2.92.28,2.92,0,0,6.54,1.88,12.62.84,6.08-1.04,8.96-8.57,8.92-12.15-.04-3.58.89-5.01.16-6.09-.73-1.08.37-.52.37-2.51,0-1.99-2.09-1.24-3.67-.14-1.57,1.11-2.03-.18-5.13-1.59-3.1-1.4-3.45-1.68-4.64-1.71-1.19-.03-1.48,1.02-.12,1.32,1.36.3,1.45,2.02.92,3.65-.53,1.62.25,2.22-1.16,2.18-1.41-.04-1.07,4.13-3.04,3.37-1.97-.76-3.96,1.14-5.83,1.8-1.87.66-2.92-1.44-2.92-1.44,0,0-.67.16-3.18-.12-2.51-.28-3.55-.97-2.8-2.81.75-1.84.42-4.32.24-6-.18-1.68-.12-14.8-.03-16.7.09-1.9.17-1.41-1.39-2.55-1.56-1.14-.57-2.09.18-3.66.75-1.57.77-4.36.64-8.07-.13-3.71,1.69-4.07,3.75-3.35,2.06.71,3.23,1.67,4.12-.56.9-2.23-.14-3.27.28-4.28.42-1.01.87-1.13,1.18.43.32,1.56-.08,1.55.36,3.28.44,1.73,3.72,1.46,6.92,2.6,3.2,1.14,3.21,2.6,3.21,4.23,0,1.63.32,1.42-.05,3.93-.37,2.51-.01,16.39.16,18.25.18,1.86,4.04,2.93,6.54,3.56,2.5.64,5.87.32,6.29-.64.42-.96-1.22-2.5-.14-3.14h0Zm-23.75,21.35c.32.46-.35.84-.35.84,0,0-.74.51-.85-.42-.11-.93.88-.87,1.2-.42ZM10.39,24.8c-1.56-1.28.44-1.8.44-1.8,0,0,1.56-.64,1.87,1.06.31,1.71-.76,2.01-2.32.74Z"/><path class="cls-1" d="m53.24,39.39s-.33-11.76.43-17.31c.76-5.55,3.92-12.1,10.06-17.34,6.14-5.24,7.99-1.57,12.33-2.08,4.34-.51,12.34,1.19,16.5,8.19,4.16,7,3.52,11.22,4.53,13.46,1,2.23-.19,4.15.53,7.26.72,3.11,1.41,3.75-.78,3.07-2.19-.67-4.75-.83-8.17-1.97-3.42-1.15-3.52-.62-3.3-2.2.22-1.59-2.69-9.17-4.75-11.61-2.06-2.44-4.36-2.49-5.59-2.61-1.23-.12-2.44,2.24-5,2-2.56-.24-1.73,1.9-3.23,5.49-1.5,3.59-.88,6.78-.95,9.7-.07,2.91-1.28,12.43.49,15.83,1.77,3.4.85,5.15,4.18,6.11,3.33.97,3.08,2.82,4.61,2.24,1.53-.58,2.83.51,3.58-1.15.75-1.66,2.4-.74,4.4-2.81,1.99-2.07,2.31-7.45,2.41-11.78.11-4.33-.47-2.4.06-6.18.54-3.78.51-2.81,2.95-1.52,2.44,1.3,2.54.77,3.08.61.53-.16-.84-1.7.4-1.67,1.24.03.58,1.6,2.32,2.62,1.74,1.01,1.76,1.1,2.3.06.53-1.05.83-1.48,1.15-.24.32,1.25.29,4.51.31,7.87.03,3.36-.39,5.91-1.13,7.31-.74,1.39-.76,2.19-.71,3.87.05,1.68-.37,4.41-1.56,5.97-1.19,1.56-.25,2.83-4.37,5.11-4.12,2.28-7.22,6.18-17.54,5.3-10.32-.88-16.84-8.64-18.46-14.51-1.62-5.87-1.01-12.22-1.08-17.08h0Z"/><path class="cls-1" d="m146.02,57.25c.62-3.78.54-3.88.26-10.42-.28-6.55.08-3.35.21-8.49.13-5.14.36-32.23.36-32.23,0,0-.6-.72-1.55-1.45-.95-.73-2.27-1.03-4.24-.11-1.97.92-3.52-.79-4.97,1.82-1.46,2.62-.13,4.41-.95,8.99-.82,4.58-.08,6.71-.25,10.07-.17,3.35,1.41,10.99-.3,11.92-1.7.93-4.77-3.65-7.85-11.06-3.08-7.41-8.59-20.63-8.59-20.63-.52-1.24-1.79-.97-3.6-1.06-1.81-.09-3.47-.7-4.42.02-.95.73-2.64-.55-4.49-.55-1.85,0,.3,2.17-.34,2.24-.64.07-1.02.9.68,1.83,1.7.93,2.9.69,2.49,2.89-.41,2.2-2.11-.41-2.51-.28-.4.12-.19.57,1.54,2.03,1.73,1.46,3.6,1.02,3.28,3.04-.31,2.02-2.48.25-3.36.23-.88-.02-2.47-.28-2.29,2.24.17,2.52-.65,11.07-.36,14.35.29,3.28.13,8.31-.22,11.66-.35,3.35.07,8.04.16,11.14.1,3.1.74,5.67.24,8.13-.5,2.46-.62,7.05-.62,7.05l10.99.27s.23-.08.05-.62c-.18-.53.58-4.85,1.43-7.12.85-2.28-.11-2.74-.85-4.97-.74-2.23.42-2.64.48-5.11.06-2.47.02-4.42.54-7.5.52-3.08-.47-9.38-.47-9.38,0,0,3,.25,3.32,1.48.32,1.23-.26,3.45,1.24,3.32,1.51-.14.55,2.58,2.09,4.82,1.54,2.25,3.4,8.83,4.92,11.88,1.52,3.04,3.14,5.2,4.14,7.7,1,2.5,4.45,6.03,4.45,6.03l9.37.23s-.63-10.62,0-14.4h0Zm-5.96-30.54c-1.34-1.27,1.85-3.44,1.87-2.21,0,0-.53,3.48-1.87,2.21Z"/><path class="cls-1" d="m173.12,5.98s-1.8,5.52-2.69,6.83c-.89,1.3-1.15.9-1.45,2.35-.3,1.45-2.15,3.72-3.34,6.21-1.19,2.49-3.16,4.43-4.92,6.11-1.76,1.68-4.18.29-3.72-2.34.46-2.64,1.64-4.73,1.68-6.45.04-1.72,1.39-2.55,2.16-4.19.77-1.64,0-2.72,1.25-5.2s2.81-3.74,3.63-4.76l.82-1.03,6.57,2.48h0Z"/><path class="cls-1" d="m213.91,7.46s-8.42.12-13.97-.35c-5.56-.47-7.72-1.32-10.13-.65-2.4.67-6.09-.3-9.08-.1-2.99.2-4.21,1.36-4.44,2.55-.23,1.19-.17,6.89-.22,8.81-.05,1.92,3.19,2.4,5.91,2.33,2.72-.06,7.64,1.98,7.64,1.98,0,0,.8,37.07.45,40.51-.35,3.44-.45,10.19-.45,10.19l10.93.27s-.21-12.73.23-17.36c.45-4.63.53-10.79-.2-13.26-.73-2.47-.56-4.19-.04-6.36.52-2.17.48-6.11.36-8.99s-.08-4.99-.08-4.99c0,0,1.88-.95,5.51-.53,3.64.42,6.87,1.03,8.03-.33,1.16-1.36-.3-6.44.8-8.33,1.11-1.89.46-5.36-1.26-5.4h0Z"/><path class="cls-1" d="m283.22,120.1s-8.42.24-13.97-.35c-5.55-.59-7.71-1.72-10.12-.79-2.41.93-6.09-.36-9.08-.06-2.99.3-4.22,1.89-4.46,3.51-.24,1.62-.23,9.37-.3,11.99-.06,2.61,3.17,3.24,5.89,3.12,2.72-.11,7.62,2.62,7.62,2.62,0,0,.47,50.42.09,55.1-.38,4.68-.54,13.87-.54,13.87l10.93.27s-.1-17.32.39-23.61c.49-6.3.63-14.68-.08-18.04-.71-3.35-.52-5.69.02-8.66.54-2.96.54-8.32.44-12.23-.1-3.91-.03-6.79-.03-6.79,0,0,1.89-1.31,5.52-.76,3.63.54,6.86,1.34,8.03-.52,1.17-1.86-.25-8.75.88-11.34,1.13-2.59.51-7.29-1.21-7.33h0Z"/><path class="cls-1" d="m35.82,154.28c-1.25.14-2.39,0-3.44-.49-2.49-1.19-4.9-2.64-4.52-4.88.39-2.24,2.79-2.85,2.91-5.1.12-2.25.09-3.64,1.7-4.27.79-.31,2.08-.47,3.18-.56l-.1-9.46c-.8-.01-1.62-.08-2.43-.23-2.7-.53-2.49-3.71-1.79-5.48.53-1.32,2.03-2.2,4.13-2.07l-.11-10.4c-.66.07-1.42.1-2.32.06-2.78-.14-5.35-.6-7.61-.59-2.25,0-4.99.21-5.02.94,0,0-.49,12.71-.41,16.51.08,3.8-.34,7.33-.32,9.89.01,2.56.18,3.1-.06,5.48-.24,2.38.67,5.23.76,8.41.1,3.18.19,6.54.13,8.93-.06,2.38.2,2.74,1.78,2.87,1.59.13,5.12.02,10.09.25,1.4.07,2.53.07,3.53.03l-.11-9.84h0Z"/><path class="cls-1" d="m53.55,134.24c-.84-.68-1.94-1.84-1.94-1.84,0,0,4.05-3.01,3.37-10.32-.68-7.31-8.5-9.95-11.39-10.95-2.89-1-4.32.62-4.57-.11-.25-.74-.38-.59-.99-.31-.23.11-.62.26-1.17.39l.07,10.9c.29.07.58.15.88.26,0,0,4.41,1.17,4.84,2.44.43,1.27.69,4.13-1.7,4.4-1.25.14-2.6.33-3.98.41l.06,9.41c.42-.02.69-.02.69-.02,0,0,5.65,1.8,8.39,3.92,2.73,2.12,5.1,2.91,4.65,5.02-.45,2.11-4.9,2.46-8.92,4.42-1.76.86-3.31,1.47-4.7,1.81l.06,10.01c1.93-.12,3.55-.36,6.15-.45,4.38-.16,12.84-4.65,14.55-14.62,1.71-9.96-3.49-14.07-4.34-14.75h0Z"/><path class="cls-1" d="m63.43,105.74c-1.18.12-2.25,0-3.24-.45-2.35-1.07-4.63-2.38-4.27-4.4.36-2.02,2.63-2.56,2.74-4.59.11-2.03.08-3.28,1.6-3.84.75-.28,1.96-.42,3-.5l-.11-8.52c-.76-.01-1.53-.07-2.29-.21-2.55-.48-2.36-3.34-1.69-4.94.5-1.19,1.91-1.98,3.9-1.86l-.12-9.37c-.62.06-1.34.09-2.19.05-2.62-.12-5.05-.54-7.18-.54-2.13,0-4.71.18-4.73.84,0,0-.45,11.45-.37,14.87.08,3.42-.31,6.6-.3,8.91.02,2.31.17,2.79-.05,4.93-.22,2.14.63,4.71.73,7.58.1,2.87.19,5.89.13,8.04-.05,2.15.19,2.47,1.69,2.59,1.5.12,4.84.02,9.52.24,1.32.06,2.38.06,3.33.04l-.11-8.86h0Z"/><path class="cls-1" d="m80.14,87.7c-.8-.62-1.84-1.66-1.84-1.66,0,0,3.82-2.71,3.17-9.29-.65-6.58-8.03-8.97-10.76-9.88-2.73-.9-4.08.56-4.31-.11-.23-.66-.36-.53-.93-.28-.22.1-.59.23-1.11.35l.08,9.82c.27.07.54.13.83.23,0,0,4.16,1.06,4.57,2.2.41,1.14.66,3.72-1.6,3.96-1.18.13-2.45.3-3.75.37l.07,8.47c.4-.01.65-.02.65-.02,0,0,5.34,1.62,7.92,3.54,2.58,1.91,4.81,2.63,4.39,4.53-.42,1.9-4.62,2.21-8.42,3.97-1.66.77-3.12,1.32-4.44,1.63l.07,9.02c1.82-.11,3.35-.32,5.8-.4,4.13-.14,12.11-4.17,13.71-13.15,1.6-8.97-3.31-12.68-4.11-13.29h0Z"/><path class="cls-1" d="m119.64,105.28c-2.39-.06-21.48.09-21.48.09,0,0-.42-8.05-.21-9.2.21-1.14,3.01-.28,5.06-.76,2.04-.48,9.98.34,10.8-.7.82-1.04-.15-8.05-.15-8.05,0,0-3.18.1-6.37.11-3.18,0-8.58.49-8.64-.92-.05-1.41-.53-6.99-.06-8.4.48-1.4,2.12-1.18,4.43-1.13,2.31.06,18.4-.25,18.4-.25,0,0,.27-3.7.39-5.03.12-1.32.45-3.79-3.96-4.16-4.41-.37-14.5.49-19,.22-4.5-.27-9.38.36-9.38.36,0,0,0,1.3,0,3.42.29.24.54.54.61.93.15.93-.61.52-.61,2.06,0,1.55,2.46.1,2.96,1.26.5,1.16-.11,1.01-1.54,1.38-1.43.36.52.54.52,2.22,0,.82-.96,1.08-1.96,1.15-.03,10.26-.07,23.53-.14,26.06-.11,4.24-.61,8.38-.61,8.38,0,0,14.72-.07,18.96-.15,4.24-.07,11.66.02,12.46.04.79.02.26-3.53.91-4.66.65-1.13.99-4.22-1.4-4.28h0Z"/><path class="cls-1" d="m94.93,153.57c-2.59-.06-23.33.09-23.33.09,0,0-.45-8.75-.23-9.99.22-1.24,3.27-.3,5.49-.82,2.22-.52,10.84.37,11.73-.76.89-1.13-.17-8.74-.17-8.74,0,0-3.46.11-6.91.12-3.46.01-9.32.54-9.38-1-.06-1.54-.58-7.6-.06-9.12.52-1.52,2.3-1.29,4.81-1.23,2.51.06,19.99-.27,19.99-.27,0,0,.29-4.02.42-5.46.13-1.44.49-4.12-4.3-4.52-4.79-.41-15.76.53-20.64.24-4.89-.29-10.18.39-10.18.39,0,0,0,1.42,0,3.71.32.26.59.59.66,1.01.17,1.01-.66.56-.66,2.24,0,1.68,2.67.11,3.21,1.37.55,1.26-.12,1.1-1.67,1.49-1.55.4.56.59.56,2.41,0,.88-1.05,1.18-2.12,1.24-.03,11.14-.08,25.56-.15,28.31-.12,4.6-.66,9.1-.66,9.1,0,0,15.98-.08,20.59-.16,4.61-.08,12.67.03,13.53.05.86.02.29-3.83.99-5.06.7-1.23,1.07-4.58-1.52-4.65h0Z"/><path class="cls-1" d="m156.9,92.51c-12.04-6.4-14.66-10-11.01-15.03,3.29-4.54,11.08-1.49,14.48,3.16.48.66,1.49.6,1.89-.12.79-1.4,1.92-3.38,2.7-4.8.24-.43.45-.82.6-1.11.01-.02.03-.05.04-.07.42-1.07.69-2.78-.5-4.71-2-3.26-3.2-4.41-7.15-5.74-3.94-1.34-5.6-2.26-6.83-2.38-1.23-.12-.43-.28-4.17.51-.97.21-1.83.27-2.58.25-.38.17-.76.34-1.15.54-3.42,1.79-5.96,3.42-7.7,5.55.43,1.03.74,2.24.13,2.83-1.13,1.1-2.16-.47-2.93,4.31-.23,1.9-.25,4.11-.06,6.75.86,11.77,10.58,16.17,12.66,17.19,2.08,1.02,11.79,4.98,9.6,11.55-2.2,6.57-12.19,3.41-14.04-.35-1.85-3.76-1.77-7.03-3.08-7.76-1.31-.74-5.47,2.34-6,4.36-.53,2.02-1.65,1.11-2.93,2.93-1.28,1.82-2.45,2.5-1.41,3.23,1.04.73,5.77,5.98,9.57,9.78,3.79,3.81,19.92,9.15,27.82-2.84,7.9-12,4.07-21.64-7.96-28.03h0Zm-20.5-10.58c-1.76-.13-.84-5.15.77-2.54,0,0,.99,2.68-.77,2.54Z"/><path class="cls-1" d="m181.7,132.63l4.31-13.5s3.02-.63,5.16-1.37l2.14-.74s.5-7.23.2-8.74c-.3-1.51-4.6-2.77-4.86-2.95-.26-.18-1.2-1.27-1.2-1.27l7.89-22.3,4.77,17.93s1.43-.58,2.57-.47c1.15.12.9-.6,1.38,1.27.48,1.87.53,3.37-.06,2.47-.6-.9-.83-2.14-.83-2.14,0,0-.34-.72-.64.78-.3,1.49,1.03,1.35-1.15,3.5-2.17,2.16-2.01,2.55-4.47,2.29-2.47-.26-2.9,3.09-2.72,6.28.19,3.18.97,3.65,2.38,3.77,1.41.12,3.72-.44,5.11.74,1.38,1.18,2.74,3.6,2.88,5.02.14,1.42-1.36,1.29-.5,2.28.86.99,3.66,2.04,6.92,2.65,3.25.61,6.16.86,6.16.86,0,0-14.23-63.89-15.08-65.15-.85-1.26-.51-.78-4.22-1.06-3.71-.28-9.34-1.04-10.17.27-.83,1.3-16.79,67.45-16.79,67.45l10.82,2.12h0Z"/><path class="cls-1" d="m154.53,205.53l6.28-22.7s3.7-.72,6.32-1.58l2.62-.85s.6-8.36.23-10.1c-.37-1.75-5.64-3.2-5.96-3.42-.32-.21-1.48-1.47-1.48-1.47l9.63-25.76,5.88,20.73s1.75-.67,3.16-.53c1.4.14,1.1-.69,1.7,1.47.6,2.16.66,3.9-.07,2.86-.73-1.04-1.02-2.48-1.02-2.48,0,0-.41-.83-.78.9-.37,1.73,1.26,1.56-1.4,4.05-2.66,2.49-2.46,2.94-5.48,2.64-3.03-.3-3.56,3.57-3.32,7.25.23,3.68,1.2,4.22,2.93,4.36,1.73.15,4.56-.5,6.26.87,1.7,1.37,3.37,4.17,3.54,5.81.18,1.64-1.66,1.49-.61,2.64,1.06,1.15,4.49,2.36,8.48,3.07,3.99.71,7.56,1,7.56,1,0,0-17.56-73.85-18.61-75.3-1.05-1.46-.63-.91-5.17-1.24-4.54-.33-11.46-1.22-12.47.29-1.01,1.51-21.48,87.16-21.48,87.16l13.26.33h0Z"/><path class="cls-1" d="m219.01,128.61s.29-57.79.89-60.69c.6-2.9.02-4.24,1.7-4.46,1.68-.22,31.28.27,33.21.44,1.94.17,2.73,3.81,2.41,6.37-.33,2.55-.73,4.4-3.57,4.86-2.84.46-20.34.64-22.39,1.3-2.05.66-2.01,6.31-.95,9.96,1.06,3.65,2.62,4.84,2.62,4.84,0,0,.52.19,1.36-1.38.83-1.57,1.54-1.38,2.23-.83.69.55,2.6-1.44,3.47-1.06.87.37,2.49-.82,3.27-.1.78.73,4.69-.33,4.47,1.35-.22,1.67-.57,1.75-.31,5.21.27,3.45,1.2,5.16-.06,5.83-1.25.68-1.96.84-7.79.51-5.82-.32-10.28.98-10.53,3.98-.25,3-.74,8.55-.53,10.59.21,2.04,1.47,1.18,1.33,3.48-.14,2.29-1.72,5.26-1.78,7.64-.06,2.38-9.07,2.16-9.07,2.16h0Z"/><path class="cls-1" d="m288.31,125.94c2.27-.62,3.78.03,5.03-5.17,1.26-5.19.5-3.9.13-5.03-.37-1.14-3.28-1.44-3.28-1.44-6.78.03-21.37.21-21.37.21,0,0-.44-10.52-.2-12.02.24-1.5,3.43-.38,5.77-1.01,2.33-.64,11.37.4,12.31-.96.67-.98.31-5.94.05-8.68-.1-1.03-.98-1.8-2.02-1.77-1.39.04-3.41.09-5.43.11-3.63.03-9.78.68-9.84-1.17-.05-1.85-.58-9.14-.03-10.98.55-1.84,2.42-1.56,5.05-1.49,2.13.05,14.52-.24,19.19-.36,1.01-.02,1.83-.81,1.9-1.82.11-1.56.26-3.75.35-4.79.14-1.73.53-4.96-4.5-5.43-5.02-.47-16.53.7-21.66.36-5.13-.34-10.69.51-10.69.51,0,0,0,1.7-.02,4.47.33.31.61.71.69,1.21.17,1.22-.7.68-.71,2.7-.01,2.02,2.8.12,3.37,1.64.57,1.52-.13,1.32-1.76,1.81-1.63.48.59.71.58,2.9,0,1.07-1.1,1.42-2.23,1.51-.07,13.41-.18,30.76-.26,34.07-.14,5.54-.72,10.96-.72,10.96,0,0,16.77-.16,21.61-.27,2.46-.06,5.84-.06,8.7-.05h0s0,0,0,0Z"/><path class="cls-1" d="m299.59,128.8s3.96-1.32,4.7-2.4c.58-.86,1.33-6.11,1.41-9.02v-.13c.02-.7,0-1.25-.08-1.56-.4-1.56-2.34-1.91-3.84-1.95-1.5-.04-4.14,2.95-4.03,5.73.11,2.79,2.15,4.16,2.88,5.15.73.99-.64.78-1.83,2.65-1.2,1.87.15,1.75.8,1.52h0Z"/><path class="cls-1" d="m133.67,152.94c.3-2.17-5.05-.81-6.11-1.76-1.06-.94-3.27.61-4.47.12-1.19-.49-3.79,2.08-4.74,1.37-.95-.71-1.91-.96-3.04,1.07-1.14,2.04-1.86,1.79-1.86,1.79,0,0-2.13-1.54-3.59-6.28-1.45-4.74-1.51-12.08,1.29-12.93,2.77-.84,26.22-1.05,30.45-1.63,1.99-.33.73-1.46.81-4.77.06-2.23-.87-6.75-1.6-9.92-9.39-.28-40.86-.78-42.88-.53-2.3.29-1.5,2.03-2.32,5.79-.82,3.77-1.11,78.76-1.11,78.76,0,0,12.31.31,12.38-2.79.08-3.1,2.22-6.94,2.42-9.92.19-2.98-1.52-1.87-1.82-4.52-.3-2.64.37-9.85.7-13.74.34-3.89,6.42-5.58,14.37-5.15,7.96.43,8.93.22,10.64-.65,1.71-.88.44-3.09.07-7.57-.37-4.48.11-4.58.41-6.76h0Z"/><polygon class="cls-1" points="182.95 190.22 185.97 206.31 202.04 206.71 198.99 194.29 188.47 184.04 182.95 190.22"/><path class="cls-1" d="m239.22,130.9s-4.17,8.32-5.69,10.67c-1.52,2.35-4.57-2.77-7.68-5.49-3.11-2.73-8.19-1.13-7.88,2.32.31,3.45-2.64,4.97.29,9.55,2.93,4.58,15.71,13.12,21.64,19.76,5.93,6.64,12.19,26.81-1.94,35.34-14.13,8.53-28.36-.17-32.94-8.11-4.57-7.93-4.98-12.85-3.62-14.27,1.36-1.42,1.63-1.55,4.23-4.8,2.6-3.25,3.89-1.76,6.04,2.27,2.15,4.03,5.5,13.39,14.02,11.88,8.52-1.51,5.16-15.65-1.71-19.39-6.86-3.75-15.01-6.6-16.58-13-1.56-6.4-3.12-13.07-4.72-18.14-1.6-5.08.95-6.07,2.84-12.79,1.89-6.71,4.76-10.09,14.29-9.72,9.54.37,21.05,10.64,19.39,13.93h0Z"/></g></g></svg>