<?xml version="1.0" encoding="UTF-8"?><svg id="Layer_2" xmlns="http://www.w3.org/2000/svg" viewBox="0 0 342.61 100.17"><defs><style>.cls-1{fill:#f6f4f4;}.cls-1,.cls-2,.cls-3,.cls-4,.cls-5{fill-rule:evenodd;}.cls-2{fill:#b1883f;}.cls-3{fill:#e8363b;}.cls-4{fill:#010101;}</style></defs><g id="Layer_1-2"><g><path class="cls-4" d="m108.21,51.36l-66.59-.11-7.7,9.5-10.89-7.82C10.83,44.15-6.46,27.17,2.46,10.76,6.66,3.05,14.9-.01,23.3,0l91.58.12c4.69,0,9.47.68,14.08,1.67,2.01-1.01,4.24-1.54,6.51-1.54l148.33.21c6.53-.24,14.64.67,20.44,3.73l.24.13,18.12,10.52c8.92,4.65,13.74,13.66,10.21,23.54-2.27,6.35-7.96,11.44-14.38,13.37l-11.26,3.88c8.09,3.67,16.18,7.31,24.24,11.05l.21.1.2.1c6.86,3.41,11.69,9.98,10.63,17.91-.83,6.19-5.04,10.95-10.68,13.36-3.4,1.45-7.15,2.03-10.82,2.03l-49.22-.07c-8.2.17-19.08-1.13-26.02-5.67-1.83-1.2-3.66-2.4-5.5-3.59-4.44,6.28-12.18,8.54-19.84,8.53l-171.59-.23,59.42-47.77Z"/><path class="cls-1" d="m206.25,46.56c.65-1.18,1.47-2.24,2.42-3.17h-7.17s4.74,3.17,4.74,3.17Zm-100.2,46.86l-40.86-.06,50.9-40.92,8.35,2.49,19.41.03-2.41-1.7c-5.78-4.09-19.16-7.67-26.16-7.67l-75.83-.12c-.46.13-1.26.85-1.56,1.22l-5.01,6.18-6.46-4.64C17.11,41.55.42,26.62,7.54,13.53c3.15-5.8,9.54-7.75,15.75-7.75l91.58.12c4.56,0,9.7.76,15.13,2.05,1.5-1.21,3.41-1.92,5.46-1.92l148.44.21c5.52-.21,12.82.5,17.64,3.06l.14.07,18.14,10.53c6.35,3.27,10.14,9.27,7.54,16.52-1.66,4.63-5.98,8.43-10.7,9.81l-25.03,8.62c3.61,1.66,7.21,3.34,10.78,4.96,8.86,4.03,17.71,8.06,26.57,12.1l.14.06.13.07c4.61,2.31,8.21,6.47,7.47,11.96-.56,4.16-3.48,7.21-7.22,8.81-2.66,1.14-5.66,1.57-8.54,1.56l-49.29-.07c-6.94.15-16.95-.9-22.8-4.73-3.74-2.45-7.49-4.89-11.23-7.34-.18,1.11-.51,2.21-1.03,3.31-2.94,6.27-9.89,8.03-16.23,8.02l-114.34-.16Z"/><path class="cls-3" d="m135.45,14.47l148.62.21s8.9-.38,13.52,2.08l18.21,10.57c2.77,1.37,4.72,3.24,3.63,6.27-1.22,3.43-5.28,4.6-5.28,4.6l-39.52,13.6s-6.23,2.05-2.02,3.82c4.22,1.77,52.87,23.98,52.87,23.98,5.69,2.85,2.39,6.37-4.51,6.36l-49.48-.07s-12.5.28-18.01-3.36c-5.45-3.53-37.72-24.64-37.72-24.64-2.77-2.16-5.87-8.63,4.65-11.46l44.9-11.19c.11-.03.11-.21-.02-.21l-80.9-.11c-11.26-6.83-23.51-15.45-48.93-20.18-.24,0-.3-.27-.03-.27"/><path class="cls-5" d="m23.28,14.21l91.58.12c15.56.02,46.26,12.09,68.22,26.83l25.67,17.22c21.96,14.74,27.2,26.78,11.65,26.76l-131.31-.18,28.83-23.18,5.28,1.58,33.69.05c7.43,0,6.91-4.65-1.16-10.36l-9.43-6.67c-8.07-5.71-23.59-9.22-31.02-9.22l-76.05-.1c-3.55,0-6.55,2.66-7.9,4.32C12.43,27.81,8.61,14.19,23.28,14.21"/><path class="cls-2" d="m95.35,97.83h.02c-.15-.05-.21-.07-.02,0"/></g></g></svg>