<?xml version="1.0" encoding="UTF-8"?><svg id="Layer_2" xmlns="http://www.w3.org/2000/svg" viewBox="0 0 510.99 81.97"><defs><style>.cls-1{fill:none;}.cls-2{fill:#b1883f;}.cls-2,.cls-3{fill-rule:evenodd;}.cls-3{fill:#ec3237;}</style></defs><g id="Layer_2-2"><path class="cls-3" d="m279.59,40.17l-2.4,3.3,8.6-3.3h35.7c5.2.9,9.1,4.2-1.3,14.4l-21.8.2,8.1-8.2h-31.1l-10.6,13.7s-7,6.9-26,6.1l18.8-26.2h22Z"/><polygon class="cls-3" points="414.69 54.47 396.39 54.67 406.99 40.17 424.99 40.17 414.69 54.47"/><polygon class="cls-3" points="463.49 54.17 449.49 53.97 458.89 40.07 473.09 40.17 463.49 54.17"/><path class="cls-3" d="m377.59,45.37h-25.1c-2.8,0-6.1,1-7.4,2.2s.1,2.2,2.9,2.2h25.1c2.8,0,6.1-1,7.4-2.2s-.1-2.2-2.9-2.2h0Zm-32.5-5.1c-9.9,0-25.1,14.6-9.5,14.6h47c8.1,0,16.8-7.9,19.2-14.7-18.8,0-37.7.1-56.7.1Z"/><polygon class="cls-3" points="292.89 37.67 310.19 31.07 335.29 31.07 319.49 37.67 292.89 37.67"/><polygon class="cls-3" points="263.69 31.07 285.69 31.07 280.89 37.67 258.89 37.67 263.69 31.07"/><path class="cls-3" d="m408.19,37.67l4.8-6.6h17.3l-2.6,3.6s15.4-5.1,28.9-3.2c5.1.5,1.9,4.6-1.1,6.2h-47.3Z"/><path class="cls-3" d="m402.59,37.67c.2-3.8-2.3-6.6-8.9-6.6h-47.5l-7.8,6.6h64.2Z"/><path class="cls-2" d="m145.69,25.47h0c-.2,0-.2-.1,0,0"/><path class="cls-3" d="m460.09,37.77l7.3-10.6h-12.7c2.3-2.3.9-4.8,0-7.4,0-.1-.9-.2-.9-.3v-.2h57.2l-5.7,7.9h-23.5l-7.2,10.6h-14.5Z"/><path class="cls-3" d="m27.39,16.37c2-.8,5.7-3.4,7.2-.5,1.5,3-3.9,7.2-6.5,12.1,0,0-4.6,6.1-2.7,5.9,3.4-.5,15.1-4.6,16.1-4.8,1.7-.4,14.4-6,16.2-7.3,10.6-8.2-20-14.3-27-11.5-3.2,1.2-5.1,6.4-3.3,6.1h0Zm198.5,44.7c-.5,0-24.2,15.8-15.8,16,7.3.2,22.3-8.6,17-15.4-.3-.4-.7-.6-1.2-.6h0Zm-12.2-18.1c3.8-2.3,9.4-5.5,12.4-9,2.6-2.9,25.5-19.5,27.9-13.6,1.9,4.6-9.9,10.4-13.4,12.5-6.2,3.7-11.5,5.2-12.2,10.6-.4,2.6,1.8,6.2,4,7.9,3.5-.9,8.5-4.8,13-7.7l.7,3.9c-2,1.2-9.8,6.1-11,7.7-.9,1.1,11.1,10.8-10.6,21.8-7.4,3.8-14.4,6.2-20.5,3.9-4.9-1.8.6-9.9,4.2-12.8,5.9-4.9,10.4-6.9,13.3-9.3.6-.5.9-.9,1.1-1.2-2.2-3.7-5.4-7.1-4.6-11.6,0-.2,0-.4-.1-.8-18.2,9.7-15.7,5.8-20.1-1.1-2.1-3.2-2.2-2.8-7.1-.3-3.1,1.5-4.7,1.4-6.4,3-2.8,2.4-13.2,9.1-18,9-6.8-.2,5.9-12.1,7-14.1.6-1.1,5.1-5.6-.3-3.3-7.3,3.1-21.4,13.4-28.2,13.3-10.6-.2-5.5-3.2-9.7-9.4-1.2-1.8-6.5,1.9-8.2,2.9,0,.4-19.4,8.2-21,8.6-5.6,1.3-12,1.9-16.4-2.5-3.8-3.9,4.6-8.9-2.3-5.1-8,4.4-19.2,5.7-16.4-2.9.2-.6.2-1.1-.2-1.6-1.8,1.1-15.7,8-17.3,8.6-2.5.9-14.3,5.3-11.6-1.8,2.2-5.8,6-.7,3.9-8.9.8-.4,1.5-1.3,2.4-1.8,2.8-1.6,5.8-1.7,8.4-4,.3-.3,29-15.6,32.8-12.3,2.6,2.3-5.6,5.2-6.3,5.6-8.4,4.7-20.1,10.8-27.8,16.4l.3.4c6.1-1.2,30.8-17.3,27.4-8.1-.9,2.4-3.9,7.5.8,7.6,1.6,0,4.5-2,6.1-2.8v-.1c2.3-1.2,3.1-2.3,6.7-3.7,5.4-2,10.3-5.2,15.6-7.2,2.4-.9,7.6-3,9.6-3.6,12.5-3.7,5.3,4.1,4.6,4.6-1.7,1.2-8.3,3.1-12.3,5-3,1.4-15.6,5.4-14.6,11.2.9,4.7,12.7.6,14.9-.2,10.9-4.1,8.7-4.6,19.5-10,4.7-2.3,9.4-7.1,13.4-4.3,4.7,3.3-8.9,21.3,13.8,8.2,3.9-2.2,21.7-13,24.1-13.7,7.2-2.2,9.1.6,4.4,6.9-1.5,2-9.1,10-8.4,11,4.2-1.5,19.1-14.2,25.9-10.3,3.5,2-.2,11.1,5.6,9.4.4-.4.8-.6,1.2-.9h0Zm-56.3-24.8c6.1.1-5.1,10.7-9.6,10.1-2.4-.3-4.8.3-3.4-3.3.7-1.8,5.3-4,6.9-4.5,2.5-.8,2.6-2.3,6.1-2.3h0ZM25.49,38.87c-1.2,3.1,12,11.8,14.7,14,4.1,3.4,9.9,7.5,14.6,10.2,2.6,1.5,1.1,8.6-2.7,6.8-4.9-2.2-14.2-5.5-18.5-9.2-3-2.6-7.9-4.5-11-7-7.8-6.3-6.8-5.5-11.9,2.4-1.2,1.8-4.7,9.3-6.9,9.2-9.8-.2,2.3-13,4.2-18.1,1.9-5-9.7-5.2,4.6-10.7,1.6-.6,8-16.4,7.8-19.7,0-.4,2.5-7.4,2.8-8.3C25.79,1.57,36.39-.43,42.69.07c4.1.3,9.6,1.2,13.8,2.9,5.9,2.4,19.8,6.1,15.2,15.3-4.2,8.9-19.2,10.7-23.3,13.1-3.7,2.2-22.3,5.9-22.9,7.5h0Z"/><path class="cls-1" d="m27.39,16.37c2-.8,5.7-3.4,7.2-.5,1.5,3-3.9,7.2-6.5,12.1,0,0-4.6,6.1-2.7,5.9,3.4-.5,15.1-4.6,16.1-4.8,1.7-.4,14.4-6,16.2-7.3,10.6-8.2-20-14.3-27-11.5-3.1,1.2-5,6.4-3.3,6.1h0Zm198.6,44.7c-.5,0-24.2,15.8-15.8,16,7.3.2,22.3-8.6,17-15.4-.3-.3-.7-.5-1.2-.6h0Zm-12.2-18.1c3.8-2.3,9.4-5.5,12.4-9,2.6-2.8,25.6-19.4,28-13.5,1.9,4.6-9.9,10.4-13.4,12.5-6.2,3.7-11.5,5.2-12.2,10.6-.4,2.6,1.8,6.2,4,7.9,3.5-.9,8.5-4.8,13-7.7l.7,3.9c-2,1.2-9.8,6.1-11,7.7-.9,1.1,11.1,10.8-10.6,21.8-7.4,3.8-14.4,6.2-20.5,3.9-4.9-1.8.6-9.9,4.2-12.8,5.9-4.9,10.4-6.9,13.3-9.3.6-.5.9-.9,1.1-1.2-2.2-3.7-5.4-7.1-4.6-11.6,0-.2,0-.4-.1-.8-18.2,9.7-15.7,5.8-20.1-1.1-2.1-3.2-2.2-2.8-7.1-.3-3.1,1.5-4.7,1.4-6.4,3-2.8,2.4-13.2,9.1-18,9-6.8-.2,5.9-12.1,7-14.1.6-1.2,5.1-5.6-.3-3.3-7.3,3.1-21.4,13.4-28.2,13.3-10.6-.2-5.5-3.2-9.7-9.4-1.2-1.8-6.5,1.9-8.2,2.9,0,.4-19.4,8.2-21,8.6-5.6,1.3-12,1.9-16.4-2.5-3.8-3.9,4.6-8.9-2.3-5.1-8,4.4-19.2,5.7-16.4-2.9.2-.6.2-1.1-.2-1.6-2,.7-16,7.7-17.6,8.3-2.5.9-14.3,5.3-11.6-1.8,2.2-5.8,6-.7,3.9-8.9.8-.4,1.5-1.3,2.4-1.8,2.8-1.6,5.8-1.7,8.4-4,.3-.3,29-15.6,32.8-12.3,2.6,2.3-5.6,5.2-6.3,5.6-8.4,4.7-20.1,10.8-27.8,16.4l.3.4c6.1-1.2,30.8-17.3,27.4-8.1-.9,2.4-3.9,7.4.8,7.5,1.6,0,4.5-2,6.1-2.8v-.1c2.3-1.2,3.1-2.3,6.7-3.7,5.4-2,10.3-5.2,15.6-7.2,2.4-.9,7.6-3,9.6-3.6,12.5-3.7,5.3,4.1,4.6,4.6-1.7,1.2-8.3,3.1-12.3,5-3,1.4-15.6,5.4-14.6,11.2.9,4.7,12.7.6,14.9-.2,10.9-4.1,8.7-4.6,19.5-10,4.7-2.3,9.4-7.1,13.4-4.3,4.7,3.3-8.9,21.3,13.8,8.2,3.9-2.2,21.7-13,24.1-13.7,7.2-2.2,9.1.6,4.4,6.9-1.5,2-9.1,10-8.4,11,4.2-1.5,19.1-14.2,25.9-10.3,3.5,2-.2,11.1,5.6,9.4.6-.1,1-.2,1.4-.6h0Zm-56.4-24.7c6.1.1-5.1,10.7-9.6,10.1-2.4-.3-4.8.3-3.4-3.3.7-1.8,5.3-4,6.9-4.5,2.6-.9,2.7-2.4,6.1-2.3h0ZM25.59,38.87c-1.2,3.1,12.1,11.8,14.7,14,4.1,3.4,9.9,7.5,14.6,10.2,2.6,1.5,1.1,8.6-2.7,6.8-4.9-2.2-14.2-5.5-18.5-9.2-3-2.6-7.9-4.5-11-7-7.8-6.3-6.8-5.5-11.9,2.4-1.2,1.8-4.7,9.3-6.9,9.2-9.8-.2,2.3-13,4.2-18.1,1.9-5-9.7-5.2,4.6-10.7,1.6-.6,8-16.4,7.8-19.7,0-.4,2.5-7.4,2.8-8.3C25.89,1.57,36.49-.43,42.79.07c4.1.3,9.6,1.2,13.8,2.9,5.9,2.4,19.8,6.1,15.2,15.3-4.2,8.9-19.2,10.7-23.3,13.1-3.7,2.2-22.3,6-22.9,7.5h0Z"/></g></svg>