<?xml version="1.0" encoding="UTF-8"?><svg id="Layer_2" xmlns="http://www.w3.org/2000/svg" viewBox="0 0 219.42 62.41"><defs><style>.cls-1{fill:none;}.cls-2{fill:#a8aaad;}.cls-2,.cls-3,.cls-4,.cls-5{fill-rule:evenodd;}.cls-3{fill:#ec2227;}.cls-4{fill:#e7262d;}.cls-5{fill:#010101;}</style></defs><g id="Layer_2-2"><g><path class="cls-4" d="m95.37.05l76.4-.03s4.62-.19,6.71.98l8.12,5.07c1.26.66,2.04,1.56,1.13,3.02-1.03,1.65-3.25,2.21-3.25,2.21l-21.92,6.58s-3.44.99-1.49,1.84c1.96.85,24.38,11.49,24.38,11.49,2.59,1.37.48,3.06-3.06,3.06h-25.44s-6.46.16-8.86-1.58c-2.39-1.7-16.5-11.83-16.5-11.83-1.18-1.04-2-4.14,3.74-5.52l24.4-5.42c.06-.01.08-.1,0-.1l-41.59.02c-4.99-3.27-10.28-7.42-22.79-9.67-.12,0-.12-.13.02-.13h-.01Z"/><path class="cls-5" d="m37.71.02l47.08-.02c7.99,0,22.37,5.78,31.94,12.85l11.18,8.27c9.56,7.07,10.85,12.86,2.85,12.86l-67.51.03,17.54-11.17,2.53.75h17.32c3.82,0,4.1-2.25.62-4.99l-4.07-3.2c-3.48-2.74-11.05-4.41-14.87-4.41l-39.1.02c-1.82,0-3.68,1.29-4.57,2.09C30.53,6.59,30.15.04,37.7.03h0Z"/><path class="cls-5" d="m119.95,45.95l-1.32,1.3,3.96-1.3h15.04c2.09.37,3.44,1.66-1.93,5.67l-9.2.06,4.19-3.24h-13.12l-5.81,5.46s-3.61,2.73-11.53,2.39l10.46-10.34h9.26,0Z"/><polygon class="cls-5" points="175.48 51.59 167.76 51.67 173.63 45.95 181.21 45.95 175.48 51.59"/><polygon class="cls-5" points="196.09 51.51 190.18 51.42 195.53 45.94 201.47 45.98 196.09 51.51"/><path class="cls-5" d="m160.77,48h-10.56c-1.19,0-2.68.4-3.31.89s-.19.89,1,.89h10.56c1.19,0,2.68-.4,3.31-.89s.19-.89-1-.89h0Zm-13.2-1.98c-4.18,0-11.97,5.75-5.4,5.75h19.8c3.4,0,7.84-3.12,9.53-5.81-7.98,0-15.94.06-23.93.06h0Z"/><polygon class="cls-5" points="125.82 44.99 133.75 42.38 144.3 42.38 137 44.99 125.82 44.99"/><polygon class="cls-5" points="114.13 42.38 123.41 42.38 120.76 44.99 111.49 44.99 114.13 42.38"/><path class="cls-5" d="m174.39,44.99l2.68-2.61h7.27l-1.45,1.43s6.97-2.01,12.49-1.26c2.12.2.36,1.82-1.05,2.44h-19.94Z"/><path class="cls-5" d="m172,44.99c.44-1.48-.32-2.61-3.12-2.61h-20.02l-3.91,2.61h27.06,0Z"/><path class="cls-1" d="m64.96,40.18h0c-.07-.03-.1-.03,0,0"/><path class="cls-2" d="m35.48,37.73h3.16c-.57.14-1.18.32-1.81.52-.9.29-1.85.63-2.82,1,.51-.41.97-.87,1.37-1.39.03-.05.07-.09.1-.14h0Z"/><path class="cls-2" d="m19.7,40.85h-2.97c.34-.34.71-.69,1.06-1.01.79-.73,1.53-1.43,1.99-2.11h8.21c-.07.05-.14.1-.23.15-.31.19-1.66.74-3.12,1.3-1.77.68-3.59,1.34-3.94,1.41-.14.03-.5.13-1,.27h0Z"/><path class="cls-2" d="m62.95,40.85h-4.25c.12-.24.19-.48.19-.73,0-.54-.26-.94-.93-1.13-.58-.16-1.6-.1-3.32.35-.71.18-2.21.68-3.41,1.08-.35.12-.69.23-1.09.36-.06.02-.13.04-.19.06h-9.44c.53-.24,1.06-.54,1.44-.86.86-.72,1.18-1.49.44-2.25l-.02-.02h23.96c-.37.16-.75.33-1.11.52-.72.38-1.37.85-1.71,1.37-.33.5-.51.9-.58,1.23h0l.02.02Z"/><path class="cls-2" d="m100.57,40.85h-15.24c.01-.26-.03-.49-.13-.69-.2-.41-.58-.67-1.14-.77-.63-.12-1.56-.04-2.74.27-.39.1-1.45.57-2.81,1.2h-9.25c.58-.35,1.13-.74,1.58-1.12.44-.37.82-.75,1.07-1.08.23-.31.39-.62.45-.92h34.36c-.7.29-1.44.64-2.18,1-1.37.67-2.76,1.43-3.95,2.13h0l-.02-.02Z"/><path class="cls-2" d="m196.23,45.03l4.09-4.17h-89.95c1.18-.9,2-1.9,1.87-2.93,0-.04,0-.07-.01-.11,0-.03-.01-.05-.02-.08h107.21l-3.17,3.12h-9.9l-4.08,4.17h-6.06.02Z"/><path class="cls-3" d="m16,36.59c.91-.33,2.74-1.35,3.08-.2.35,1.18-2.33,2.85-3.9,4.75,0,0-2.52,2.42-1.73,2.32,1.49-.18,6.82-1.8,7.23-1.88.77-.16,6.66-2.36,7.54-2.89,5.28-3.23-7.06-5.65-10.27-4.53-1.41.49-2.71,2.53-1.95,2.43h0Zm79.31,17.63c-.22,0-11.74,6.25-8.2,6.32,3.05.06,10.21-3.38,8.65-6.07-.1-.16-.24-.24-.46-.24h0Zm-3.36-7.15c1.82-.92,4.48-2.15,6.11-3.53,1.36-1.14,12.63-7.68,13.07-5.35.35,1.81-5.18,4.11-6.85,4.92-2.98,1.45-5.34,2.04-6.19,4.17-.41,1.02.16,2.47.93,3.1,1.58-.35,4.04-1.9,6.24-3.04l-.08,1.55c-.95.48-4.7,2.39-5.37,3.04-.47.45,3.63,4.26-6.58,8.58-3.49,1.48-6.66,2.45-9.03,1.52-1.86-.73,1.22-3.89,3-5.07,2.97-1.94,5.03-2.72,6.51-3.66.29-.18.49-.35.58-.5-.56-1.46-1.58-2.79-.82-4.59.03-.07.03-.17.01-.32-8.61,3.84-7.17,2.27-8.37-.45-.56-1.25-.65-1.12-2.95-.14-1.43.61-2.11.56-3,1.17-1.43.96-6.47,3.6-8.45,3.56-2.83-.05,3.64-4.77,4.3-5.55.39-.46,2.71-2.22.2-1.3-3.38,1.24-10.3,5.29-13.18,5.23-4.44-.09-2.02-1.25-3.17-3.72-.34-.73-2.91.73-3.76,1.16-.05.16-8.98,3.25-9.67,3.4-2.5.52-5.24.77-6.66-.99-1.23-1.54,2.81-3.51-.49-2-3.8,1.74-8.67,2.25-6.64-1.15.14-.22.2-.42.09-.63-.86.43-7.41,3.17-8.14,3.4-1.13.37-6.53,2.1-4.71-.71,1.47-2.27,2.58-.26,2.52-3.52.36-.17.73-.5,1.18-.72,1.34-.64,2.64-.69,3.92-1.56.15-.1,13.75-6.16,15.01-4.86.88.91-2.86,2.04-3.21,2.21-3.97,1.84-9.52,4.27-13.29,6.47l.07.15c2.68-.48,14.64-6.83,12.34-3.2-.61.96-2.39,2.96-.39,3,.69,0,2.1-.77,2.84-1.1v-.02c1.09-.46,1.51-.92,3.18-1.45,2.47-.77,4.86-2.06,7.26-2.84,1.11-.36,3.5-1.18,4.41-1.41,5.64-1.46,1.83,1.63,1.5,1.82-.84.48-3.81,1.23-5.67,1.95-1.41.55-7.11,2.13-7.22,4.43-.09,1.84,5.28.24,6.31-.1,5-1.6,4.12-1.8,9.2-3.93,2.2-.92,4.66-2.78,6.05-1.71,1.65,1.28-5.84,8.42,5.03,3.23,1.85-.88,10.39-5.11,11.48-5.4,3.25-.86,3.77.24,1.2,2.72-.84.8-4.81,3.94-4.61,4.33,1.92-.6,9.41-5.58,11.92-4.05,1.27.78-1.16,4.37,1.45,3.69.2-.05.39-.12.6-.23h0s-.01,0-.01,0Zm-21.35-9.77c2.57.05-3.19,4.2-5.03,3.97-.98-.12-2.04.12-1.11-1.3.48-.73,2.64-1.58,3.34-1.78,1.15-.33,1.34-.92,2.8-.89h0Zm-57.55,8.14c-.8,1.24,3.93,4.67,4.84,5.52,1.41,1.32,3.44,2.95,5.18,4.03.96.6-.37,3.38-1.79,2.7-1.83-.88-5.46-2.18-6.91-3.63-1.01-1.02-2.9-1.77-3.95-2.74-2.67-2.49-2.34-2.15-5.25.96-.67.73-2.87,3.65-3.81,3.63-4.1-.08,2.24-5.13,3.54-7.13,1.3-1.99-3.6-2.06,2.97-4.22.74-.24,4.94-6.46,5.19-7.78.03-.14,1.75-2.91,1.98-3.27,1.77-2.72,6.43-3.51,9.03-3.31,1.69.13,3.94.49,5.51,1.15,2.26.94,7.75,2.42,4.94,6.05-2.64,3.41-9.14,4.12-11.11,5.09-1.77.86-9.95,2.34-10.35,2.96h0Z"/><polygon class="cls-2" points="11.59 37.74 8.1 37.74 6.17 40.61 9.57 40.61 11.59 37.74"/></g></g></svg>