<?xml version="1.0" encoding="UTF-8"?><svg id="Layer_2" xmlns="http://www.w3.org/2000/svg" viewBox="0 0 470.26 225.95"><defs><style>.cls-1,.cls-2{fill:#03549a;}.cls-3{font-family:MyriadPro-Regular, 'Myriad Pro';}.cls-4{font-family:Impact, Impact;}.cls-5{fill:none;stroke:#03549a;stroke-miterlimit:10;stroke-width:4px;}.cls-2{font-size:40px;}</style></defs><g id="Layer_1-2"><g><path class="cls-1" d="M204.75,13.23L0,155.6l129.79-.04,137.52-90.65,165.38,91.1,28.25,.09L204.75,13.23Zm185.42-1.58l-4.65-3.18,2.81-4.88-5.39,1.65-2.07-5.24-2.07,5.24-5.38-1.65,2.81,4.88-4.65,3.18,5.57,.86-.41,5.61,4.13-3.82,4.14,3.82-.41-5.61,5.57-.86Zm-28.73,31.62l-4.65-3.18,2.81-4.89-5.39,1.65-2.07-5.24-2.07,5.24-5.38-1.65,2.8,4.89-4.64,3.18,5.57,.85-.41,5.62,4.13-3.82,4.14,3.82-.41-5.62,5.57-.85Zm55.9-6.25l-4.65-3.18,2.81-4.89-5.39,1.65-2.07-5.24-2.07,5.24-5.38-1.65,2.8,4.89-4.64,3.18,5.57,.85-.41,5.62,4.13-3.82,4.14,3.82-.41-5.62,5.57-.85Zm-25.13,55.04l-4.65-3.18,2.81-4.89-5.39,1.65-2.07-5.24-2.07,5.24-5.38-1.65,2.8,4.89-4.64,3.18,5.57,.85-.41,5.62,4.13-3.82,4.14,3.82-.41-5.62,5.57-.85Zm6.54-39.54l-3.22-.47-1.44-2.91-1.44,2.91-3.22,.47,2.33,2.27-.55,3.21,2.88-1.52,2.88,1.52-.55-3.21,2.33-2.27Zm-168.46,76.8v-8.54c0-6.55-5.3-11.85-11.84-11.85h-8.31c-6.54,0-11.84,5.3-11.84,11.85v23.52c0,6.54,5.3,11.84,11.84,11.84h8.31c6.54,0,11.84-5.3,11.84-11.84v-7.12h-13.51v10.44c0,.79-.66,1.44-1.49,1.44h-2.59c-.83,0-1.49-.65-1.49-1.44v-30.16c0-.8,.66-1.44,1.49-1.44h2.59c.83,0,1.49,.64,1.49,1.44v11.86h13.51Zm3.25-19.85v46.14h23.24v-46.14h-23.24Zm19.46,37.2c0,1.32-1.07,2.39-2.39,2.39h-3.3v-14.75h3.3c1.32,0,2.39,1.07,2.39,2.39v9.97Zm0-19.86c0,1.24-1,2.24-2.23,2.24h-3.46v-11.94h3.46c1.23,0,2.23,1,2.23,2.23v7.47Zm8.39,4.69h-4.61v24.2h4.61c2.78,0,5.04-2.26,5.04-5.05v-14.1c0-2.79-2.26-5.05-5.04-5.05Zm.38-21.94h-4.99v21.45h4.99c2.57,0,4.66-2.09,4.66-4.67v-12.11c0-2.58-2.09-4.67-4.66-4.67Zm31.77,.31l-3.17,22.98-3.18-22.98h-18.53v46.15h12.29v-31.55l5.73,31.45h7.37l5.74-31.45v31.55h12.28v-46.15h-18.53Zm21.16-.36v21.41h23.24v-21.41h-23.24Zm13.77,7.55h3.45c1.24,0,2.24,1,2.24,2.24v7.47c0,1.23-1,2.23-2.24,2.23h-3.45v-11.94Zm14.45-7.55h-4.98v21.46h4.98c2.58,0,4.67-2.09,4.67-4.67v-12.12c0-2.58-2.09-4.67-4.67-4.67Zm-28.22,20.92v25.18h13.77v-18.89c0-1.38,1.12-2.5,2.5-2.5h.68c1.39,0,2.51,1.12,2.51,2.5v18.89h5.71v-25.18h-25.17Zm28.34,2.15h-3.17v23.08h7.72v-18.53c0-2.51-2.04-4.55-4.55-4.55Z"/><text class="cls-2" transform="translate(3.36 212.73)"><tspan class="cls-4" x="0" y="0">ROOFING AND CONSTRUCTION</tspan><tspan class="cls-3" x="458.42" y="0"> </tspan></text><line class="cls-5" y1="168.77" x2="460.94" y2="168.77"/></g></g></svg>