<?xml version="1.0" encoding="UTF-8"?><svg id="Layer_2" xmlns="http://www.w3.org/2000/svg" viewBox="0 0 254.95 82.42"><defs><style>.cls-1{fill:none;stroke:#ec3237;stroke-miterlimit:22.93;stroke-width:.74px;}.cls-2{fill:#b1883f;}.cls-2,.cls-3{fill-rule:evenodd;}.cls-3{fill:#ec3237;}</style></defs><g id="Layer_1-2"><g><path class="cls-2" d="m145.9,25.71h.02c-.19-.06-.25-.09-.02,0"/><path class="cls-3" d="m27.57,16.58c1.96-.84,5.73-3.42,7.2-.52,1.51,3-3.88,7.23-6.48,12.07-.01.02-4.58,6.14-2.74,5.89,3.43-.47,15.14-4.57,16.06-4.78,1.73-.39,14.43-5.98,16.2-7.34,10.65-8.19-20.05-14.33-27.03-11.49-3.06,1.24-4.96,6.42-3.21,6.17h0Zm198.52,44.71c-.54-.01-24.21,15.84-15.77,16.02,7.27.15,22.26-8.56,17-15.4-.32-.41-.72-.61-1.23-.62Zm-12.13-18.1c3.78-2.34,9.37-5.46,12.45-8.96,2.55-2.89,25.49-19.49,27.91-13.57,1.87,4.58-9.91,10.42-13.39,12.47-6.23,3.67-11.47,5.19-12.25,10.58-.37,2.58,1.8,6.25,4.02,7.88,3.53-.89,8.48-4.82,13.03-7.71l.71,3.92c-1.97,1.22-9.76,6.06-10.98,7.7-.85,1.14,11.1,10.8-10.62,21.75-7.43,3.75-14.39,6.21-20.53,3.86-4.85-1.85.61-9.87,4.16-12.84,5.9-4.93,10.36-6.91,13.33-9.28.59-.47.95-.89,1.09-1.25-2.18-3.71-5.37-7.07-4.63-11.64.03-.17-.03-.43-.15-.81-18.2,9.73-15.69,5.75-20.14-1.13-2.06-3.17-2.2-2.84-7.1-.34-3.05,1.55-4.68,1.44-6.45,2.96-2.83,2.44-13.25,9.13-17.98,9.03-6.75-.15,5.86-12.11,6.96-14.07.65-1.14,5.14-5.63-.29-3.31-7.31,3.13-21.36,13.41-28.22,13.27-10.59-.23-5.52-3.17-9.7-9.43-1.24-1.85-6.47,1.86-8.25,2.94-.02.4-19.42,8.24-20.98,8.61-5.64,1.32-12,1.94-16.37-2.51-3.82-3.88,4.63-8.91-2.33-5.07-8,4.4-19.25,5.7-16.43-2.92.19-.57.22-1.06-.16-1.61-1.79,1.08-15.74,8.02-17.33,8.62-2.47.93-14.29,5.32-11.59-1.81,2.18-5.75,5.97-.67,3.92-8.92.76-.42,1.45-1.28,2.37-1.82,2.8-1.63,5.85-1.73,8.39-3.96.29-.26,29.05-15.62,32.79-12.33,2.62,2.3-5.6,5.18-6.34,5.6-8.36,4.67-20.12,10.84-27.75,16.42l.27.38c6.07-1.21,30.77-17.32,27.43-8.11-.89,2.44-3.95,7.52.83,7.62,1.64.03,4.53-1.96,6.09-2.8,0-.02-.01-.04-.02-.06,2.33-1.17,3.05-2.34,6.7-3.66,5.42-1.97,10.33-5.21,15.58-7.2,2.43-.92,7.61-2.99,9.64-3.58,12.55-3.71,5.29,4.14,4.62,4.62-1.72,1.23-8.33,3.12-12.33,4.95-3.04,1.39-15.64,5.41-14.56,11.23.87,4.67,12.66.6,14.92-.24,10.94-4.07,8.72-4.57,19.54-9.96,4.69-2.33,9.44-7.06,13.35-4.33,4.67,3.26-8.95,21.33,13.83,8.2,3.89-2.24,21.68-12.96,24.11-13.69,7.21-2.16,9.09.62,4.41,6.89-1.52,2.03-9.11,10-8.4,10.97,4.22-1.51,19.09-14.16,25.93-10.26,3.46,1.97-.2,11.07,5.59,9.36.43-.13.87-.31,1.31-.58,0,0,0-.02,0-.03h0Zm-56.37-24.77c6.13.13-5.12,10.67-9.62,10.07-2.39-.32-4.77.29-3.4-3.3.7-1.85,5.33-3.99,6.89-4.51,2.54-.85,2.66-2.34,6.13-2.26h0ZM25.74,39.08c-1.19,3.13,12.05,11.83,14.69,13.99,4.13,3.36,9.91,7.5,14.63,10.24,2.63,1.52,1.08,8.56-2.68,6.83-4.86-2.22-14.23-5.52-18.52-9.2-3-2.58-7.91-4.49-10.97-6.97-7.78-6.3-6.82-5.46-11.9,2.44-1.18,1.84-4.67,9.26-6.93,9.22-9.77-.21,2.32-13.01,4.25-18.08,1.92-5.05-9.74-5.24,4.59-10.7,1.62-.62,7.97-16.38,7.78-19.73-.02-.35,2.46-7.39,2.8-8.28C26.1,1.95,36.68-.07,42.99.43c4.08.32,9.64,1.25,13.75,2.91,5.92,2.4,19.81,6.13,15.25,15.34-4.28,8.65-19.27,10.46-23.39,12.9-3.69,2.19-22.25,5.92-22.85,7.5h0Z"/><path class="cls-1" d="m27.63,16.59c1.96-.83,5.73-3.42,7.2-.52,1.51,3-3.88,7.23-6.48,12.07-.01.02-4.58,6.14-2.74,5.89,3.43-.47,15.14-4.57,16.06-4.78,1.73-.39,14.44-5.98,16.2-7.34,10.65-8.2-20.05-14.33-27.03-11.49-3.06,1.24-4.96,6.42-3.21,6.17h0Zm198.53,44.72c-.54-.01-24.21,15.84-15.77,16.02,7.27.16,22.26-8.56,17-15.4-.32-.41-.72-.61-1.23-.62Zm-12.13-18.1c3.78-2.34,9.37-5.46,12.45-8.96,2.55-2.89,25.49-19.49,27.9-13.58,1.87,4.57-9.91,10.42-13.39,12.47-6.23,3.67-11.47,5.19-12.25,10.58-.37,2.58,1.8,6.25,4.02,7.88,3.53-.89,8.48-4.82,13.03-7.71l.71,3.92c-1.97,1.22-9.76,6.06-10.98,7.7-.85,1.14,11.1,10.8-10.62,21.75-7.43,3.75-14.39,6.21-20.53,3.86-4.85-1.85.61-9.87,4.16-12.84,5.9-4.93,10.36-6.91,13.33-9.28.59-.47.95-.89,1.09-1.25-2.18-3.7-5.37-7.07-4.63-11.64.03-.17-.03-.43-.15-.81-18.2,9.73-15.69,5.75-20.14-1.13-2.06-3.17-2.2-2.84-7.1-.34-3.05,1.55-4.68,1.44-6.45,2.96-2.83,2.44-13.25,9.13-17.98,9.03-6.75-.15,5.86-12.11,6.97-14.07.65-1.15,5.14-5.63-.29-3.31-7.31,3.13-21.36,13.41-28.22,13.27-10.59-.23-5.52-3.17-9.7-9.43-1.24-1.85-6.47,1.87-8.25,2.94-.02.4-19.42,8.24-20.98,8.61-5.63,1.32-12,1.94-16.37-2.51-3.82-3.88,4.63-8.91-2.33-5.07-8,4.4-19.25,5.7-16.43-2.92.19-.57.22-1.06-.16-1.61-1.79,1.08-15.74,8.02-17.33,8.62-2.47.93-14.29,5.32-11.59-1.81,2.18-5.75,5.97-.67,3.92-8.92.76-.42,1.45-1.28,2.37-1.82,2.8-1.63,5.85-1.73,8.39-3.96.29-.26,29.05-15.62,32.79-12.33,2.62,2.3-5.6,5.18-6.34,5.6-8.36,4.67-20.12,10.84-27.75,16.42l.27.38c6.07-1.21,30.78-17.32,27.43-8.11-.89,2.44-3.95,7.52.83,7.62,1.64.03,4.53-1.96,6.09-2.8,0-.02-.01-.04-.02-.06,2.33-1.17,3.05-2.34,6.7-3.66,5.42-1.97,10.33-5.21,15.58-7.2,2.43-.92,7.61-2.99,9.64-3.59,12.55-3.71,5.29,4.14,4.62,4.62-1.72,1.23-8.33,3.12-12.33,4.95-3.04,1.39-15.64,5.41-14.56,11.23.87,4.67,12.66.6,14.92-.24,10.94-4.07,8.72-4.57,19.54-9.96,4.69-2.33,9.44-7.06,13.35-4.33,4.67,3.26-8.95,21.33,13.83,8.2,3.89-2.24,21.68-12.96,24.11-13.69,7.21-2.16,9.09.62,4.41,6.89-1.52,2.03-9.11,10-8.4,10.97,4.22-1.51,19.09-14.16,25.93-10.26,3.46,1.97-.2,11.07,5.59,9.36.43-.13.87-.31,1.31-.58,0-.01,0-.02,0-.03h0Zm-56.37-24.77c6.13.13-5.12,10.67-9.62,10.07-2.39-.32-4.77.29-3.4-3.3.7-1.85,5.33-3.99,6.89-4.51,2.54-.85,2.66-2.34,6.13-2.26h0ZM25.8,39.09c-1.19,3.13,12.05,11.83,14.69,13.99,4.13,3.36,9.91,7.5,14.63,10.24,2.63,1.52,1.08,8.56-2.68,6.83-4.86-2.22-14.23-5.52-18.52-9.2-3-2.58-7.91-4.49-10.97-6.97-7.78-6.3-6.82-5.46-11.9,2.44-1.18,1.84-4.67,9.27-6.92,9.22-9.77-.21,2.32-13.01,4.25-18.08,1.92-5.05-9.74-5.24,4.59-10.7,1.62-.61,7.97-16.38,7.78-19.73-.02-.35,2.46-7.39,2.8-8.28C26.16,1.96,36.74-.05,43.05.44c4.08.32,9.64,1.25,13.75,2.91,5.92,2.4,19.81,6.13,15.25,15.34-4.28,8.65-19.28,10.46-23.4,12.9-3.69,2.18-22.25,5.92-22.85,7.5h0Z"/></g></g></svg>