<?xml version="1.0" encoding="UTF-8"?><svg id="Layer_2" xmlns="http://www.w3.org/2000/svg" viewBox="0 0 511.1 82.39"><defs><style>.cls-1{fill:#d8dfe9;}.cls-1,.cls-2,.cls-3,.cls-4{fill-rule:evenodd;}.cls-2{fill:#b1883f;}.cls-3{fill:#ec3237;}.cls-5{fill:none;stroke:#ec3237;stroke-miterlimit:22.93;stroke-width:.74px;}</style></defs><g id="Layer_2-2"><g><path class="cls-4" d="m279.75,40.3l-2.39,3.3,8.64-3.3h35.72c5.16.94,9.12,4.21-1.26,14.39l-21.82.16,8.06-8.22h-31.13l-10.6,13.84s-6.98,6.92-25.99,6.06l18.8-26.23h21.97Z"/><polygon class="cls-4" points="414.85 54.61 396.57 54.82 407.16 40.3 425.16 40.3 414.85 54.61"/><polygon class="cls-4" points="463.72 54.39 449.66 54.17 459.15 40.27 473.28 40.39 463.72 54.39"/><path class="cls-4" d="m377.83,45.5h-25.07c-2.82,0-6.12,1.01-7.35,2.25s.07,2.25,2.89,2.25h25.07c2.82,0,6.12-1.01,7.35-2.25s-.07-2.25-2.89-2.25h0Zm-32.49-5.03c-9.93,0-25.06,14.58-9.47,14.58h47c8.06,0,16.8-7.92,19.24-14.74-18.95,0-37.8.16-56.77.16Z"/><polygon class="cls-4" points="293.14 37.86 310.43 31.25 335.46 31.25 319.68 37.86 293.14 37.86"/><polygon class="cls-4" points="263.87 31.25 285.9 31.25 281.12 37.86 259.13 37.86 263.87 31.25"/><path class="cls-4" d="m408.41,37.86l4.83-6.62h17.26l-2.61,3.61s15.36-5.09,28.92-3.18c5.14.51,1.91,4.62-1.07,6.19h-47.33Z"/><path class="cls-4" d="m402.76,37.86c.19-3.76-2.28-6.62-8.94-6.62h-47.52l-7.77,6.62h64.23,0Z"/><path class="cls-2" d="m145.89,25.68h.02c-.19-.06-.25-.09-.02,0"/><path class="cls-1" d="m74.47,19.46h7.49c-1.27.36-2.6.81-3.98,1.33-1.95.73-4.03,1.6-6.12,2.52.97-1.04,1.8-2.21,2.45-3.51.06-.12.11-.23.16-.34h0Z"/><path class="cls-1" d="m14.93,27.38h-7.31l4.85-7.92h5.24c-.51,1.9-1.46,4.59-2.51,7.25l-.27.68h0Z"/><path class="cls-1" d="m38.83,27.38h-7.04c.61-.87,1.28-1.74,1.93-2.57,1.45-1.87,2.8-3.61,3.48-5.35h19.49c-.13.12-.28.24-.46.37-.63.48-3.52,1.88-6.66,3.3-3.79,1.72-7.75,3.39-8.52,3.57-.33.07-1.11.33-2.21.69h-.01Z"/><path class="cls-1" d="m141.5,27.38h-10.07c.14-.61.16-1.23.03-1.84-.3-1.36-1.16-2.4-2.86-2.86-1.46-.4-3.86-.24-7.69.89-1.58.47-4.85,1.73-7.46,2.74-.78.3-1.49.58-2.36.91-.14.05-.28.11-.42.16h-22.41c1.12-.63,2.2-1.36,2.92-2.18,1.61-1.83,1.92-3.78-.26-5.7l-.05-.04h56.87c-.78.39-1.6.84-2.33,1.32-1.48.97-2.76,2.15-3.26,3.48-.48,1.27-.68,2.29-.65,3.12h0Z"/><path class="cls-1" d="m230.78,27.38h-36.18c-.11-.65-.35-1.24-.71-1.77-.7-1.03-1.77-1.69-3.17-1.96-1.58-.31-3.71-.1-6.35.69-.86.26-3.12,1.45-5.97,3.04h-21.96c1.18-.9,2.25-1.88,3.09-2.84.83-.94,1.5-1.88,1.9-2.74.37-.8.56-1.58.53-2.33h81.56c-1.49.75-3.05,1.61-4.59,2.53-2.85,1.7-5.72,3.63-8.15,5.39h0Z"/><path class="cls-1" d="m460.29,37.96l7.28-10.58h-213.49c2.26-2.27,3.64-4.82,2.73-7.43-.03-.09-.06-.19-.1-.28l-.09-.21h254.48l-5.69,7.92h-23.5l-7.24,10.58h-14.38Z"/><path class="cls-3" d="m27.56,16.55c1.96-.84,5.73-3.42,7.2-.52,1.51,3-3.88,7.23-6.48,12.07,0,.02-4.58,6.14-2.74,5.89,3.43-.47,15.14-4.57,16.06-4.78,1.73-.39,14.43-5.98,16.2-7.34,10.65-8.19-20.05-14.33-27.03-11.49-3.06,1.24-4.96,6.42-3.21,6.17h0Zm198.52,44.71c-.54,0-24.21,15.84-15.77,16.02,7.27.15,22.26-8.56,17-15.4-.32-.41-.72-.61-1.23-.62h0Zm-12.13-18.1c3.78-2.34,9.37-5.46,12.45-8.96,2.55-2.89,25.49-19.49,27.91-13.57,1.87,4.58-9.91,10.42-13.39,12.47-6.23,3.67-11.47,5.19-12.25,10.58-.37,2.58,1.8,6.25,4.02,7.88,3.53-.89,8.48-4.82,13.03-7.71l.71,3.92c-1.97,1.22-9.76,6.06-10.98,7.7-.85,1.14,11.1,10.8-10.62,21.75-7.43,3.75-14.39,6.21-20.53,3.86-4.85-1.85.61-9.87,4.16-12.84,5.9-4.93,10.36-6.91,13.33-9.28.59-.47.95-.89,1.09-1.25-2.18-3.71-5.37-7.07-4.63-11.64.03-.17-.03-.43-.15-.81-18.2,9.73-15.69,5.75-20.14-1.13-2.06-3.17-2.2-2.84-7.1-.34-3.05,1.55-4.68,1.44-6.45,2.96-2.83,2.44-13.25,9.13-17.98,9.03-6.75-.15,5.86-12.11,6.96-14.07.65-1.14,5.14-5.63-.29-3.31-7.31,3.13-21.36,13.41-28.22,13.27-10.59-.23-5.52-3.17-9.7-9.43-1.24-1.85-6.47,1.86-8.25,2.94-.02.4-19.42,8.24-20.98,8.61-5.64,1.32-12,1.94-16.37-2.51-3.82-3.88,4.63-8.91-2.33-5.07-8,4.4-19.25,5.7-16.43-2.92.19-.57.22-1.06-.16-1.61-1.79,1.08-15.74,8.02-17.33,8.62-2.47.93-14.29,5.32-11.59-1.81,2.18-5.75,5.97-.67,3.92-8.92.76-.42,1.45-1.28,2.37-1.82,2.8-1.63,5.85-1.73,8.39-3.96.29-.26,29.05-15.62,32.79-12.33,2.62,2.3-5.6,5.18-6.34,5.6-8.36,4.67-20.12,10.84-27.75,16.42l.27.38c6.07-1.21,30.77-17.32,27.43-8.11-.89,2.44-3.95,7.52.83,7.62,1.64.03,4.53-1.96,6.09-2.8,0-.02-.01-.04-.02-.06,2.33-1.17,3.05-2.34,6.7-3.66,5.42-1.97,10.33-5.21,15.58-7.2,2.43-.92,7.61-2.99,9.64-3.58,12.55-3.71,5.29,4.14,4.62,4.62-1.72,1.23-8.33,3.12-12.33,4.95-3.04,1.39-15.64,5.41-14.56,11.23.87,4.67,12.66.6,14.92-.24,10.94-4.07,8.72-4.57,19.54-9.96,4.69-2.33,9.44-7.06,13.35-4.33,4.67,3.26-8.95,21.33,13.83,8.2,3.89-2.24,21.68-12.96,24.11-13.69,7.21-2.16,9.09.62,4.41,6.89-1.52,2.03-9.11,10-8.4,10.97,4.22-1.51,19.09-14.16,25.93-10.26,3.46,1.97-.2,11.07,5.59,9.36.43-.13.87-.31,1.31-.58v-.03h0v-.04Zm-56.38-24.77c6.13.13-5.12,10.67-9.62,10.07-2.39-.32-4.77.29-3.4-3.3.7-1.85,5.33-3.99,6.89-4.51,2.54-.85,2.66-2.34,6.13-2.26h0ZM25.73,39.05c-1.19,3.13,12.05,11.83,14.69,13.99,4.13,3.36,9.91,7.5,14.63,10.24,2.63,1.52,1.08,8.56-2.68,6.83-4.86-2.22-14.23-5.52-18.52-9.2-3-2.58-7.91-4.49-10.97-6.97-7.78-6.3-6.82-5.46-11.9,2.44-1.18,1.84-4.67,9.26-6.93,9.22-9.77-.21,2.32-13.01,4.25-18.08,1.92-5.05-9.74-5.24,4.59-10.7,1.62-.62,7.97-16.38,7.78-19.73-.02-.35,2.46-7.39,2.8-8.28C26.08,1.92,36.67-.09,42.98.41c4.08.32,9.64,1.25,13.75,2.91,5.92,2.4,19.81,6.13,15.25,15.34-4.28,8.65-19.27,10.46-23.39,12.9-3.69,2.19-22.25,5.92-22.85,7.5h-.01Z"/><path class="cls-5" d="m27.63,16.57c1.96-.83,5.73-3.42,7.2-.52,1.51,3-3.88,7.23-6.48,12.07,0,.02-4.58,6.14-2.74,5.89,3.43-.47,15.14-4.57,16.06-4.78,1.73-.39,14.44-5.98,16.2-7.34,10.65-8.2-20.05-14.33-27.03-11.49-3.06,1.24-4.96,6.42-3.21,6.17h0Zm198.53,44.72c-.54,0-24.21,15.84-15.77,16.02,7.27.16,22.26-8.56,17-15.4-.32-.41-.72-.61-1.23-.62h0Zm-12.13-18.1c3.78-2.34,9.37-5.46,12.45-8.96,2.55-2.89,25.49-19.49,27.9-13.58,1.87,4.57-9.91,10.42-13.39,12.47-6.23,3.67-11.47,5.19-12.25,10.58-.37,2.58,1.8,6.25,4.02,7.88,3.53-.89,8.48-4.82,13.03-7.71l.71,3.92c-1.97,1.22-9.76,6.06-10.98,7.7-.85,1.14,11.1,10.8-10.62,21.75-7.43,3.75-14.39,6.21-20.53,3.86-4.85-1.85.61-9.87,4.16-12.84,5.9-4.93,10.36-6.91,13.33-9.28.59-.47.95-.89,1.09-1.25-2.18-3.7-5.37-7.07-4.63-11.64.03-.17-.03-.43-.15-.81-18.2,9.73-15.69,5.75-20.14-1.13-2.06-3.17-2.2-2.84-7.1-.34-3.05,1.55-4.68,1.44-6.45,2.96-2.83,2.44-13.25,9.13-17.98,9.03-6.75-.15,5.86-12.11,6.97-14.07.65-1.15,5.14-5.63-.29-3.31-7.31,3.13-21.36,13.41-28.22,13.27-10.59-.23-5.52-3.17-9.7-9.43-1.24-1.85-6.47,1.87-8.25,2.94-.02.4-19.42,8.24-20.98,8.61-5.63,1.32-12,1.94-16.37-2.51-3.82-3.88,4.63-8.91-2.33-5.07-8,4.4-19.25,5.7-16.43-2.92.19-.57.22-1.06-.16-1.61-1.79,1.08-15.74,8.02-17.33,8.62-2.47.93-14.29,5.32-11.59-1.81,2.18-5.75,5.97-.67,3.92-8.92.76-.42,1.45-1.28,2.37-1.82,2.8-1.63,5.85-1.73,8.39-3.96.29-.26,29.05-15.62,32.79-12.33,2.62,2.3-5.6,5.18-6.34,5.6-8.36,4.67-20.12,10.84-27.75,16.42l.27.38c6.07-1.21,30.78-17.32,27.43-8.11-.89,2.44-3.95,7.52.83,7.62,1.64.03,4.53-1.96,6.09-2.8,0-.02-.01-.04-.02-.06,2.33-1.17,3.05-2.34,6.7-3.66,5.42-1.97,10.33-5.21,15.58-7.2,2.43-.92,7.61-2.99,9.64-3.59,12.55-3.71,5.29,4.14,4.62,4.62-1.72,1.23-8.33,3.12-12.33,4.95-3.04,1.39-15.64,5.41-14.56,11.23.87,4.67,12.66.6,14.92-.24,10.94-4.07,8.72-4.57,19.54-9.96,4.69-2.33,9.44-7.06,13.35-4.33,4.67,3.26-8.95,21.33,13.83,8.2,3.89-2.24,21.68-12.96,24.11-13.69,7.21-2.16,9.09.62,4.41,6.89-1.52,2.03-9.11,10-8.4,10.97,4.22-1.51,19.09-14.16,25.93-10.26,3.46,1.97-.2,11.07,5.59,9.36.43-.13.87-.31,1.31-.58v-.03h0v-.02Zm-56.38-24.77c6.13.13-5.12,10.67-9.62,10.07-2.39-.32-4.77.29-3.4-3.3.7-1.85,5.33-3.99,6.89-4.51,2.54-.85,2.66-2.34,6.13-2.26h0ZM25.81,39.08c-1.19,3.13,12.05,11.83,14.69,13.99,4.13,3.36,9.91,7.5,14.63,10.24,2.63,1.52,1.08,8.56-2.68,6.83-4.86-2.22-14.23-5.52-18.52-9.2-3-2.58-7.91-4.49-10.97-6.97-7.78-6.3-6.82-5.46-11.9,2.44-1.18,1.84-4.67,9.27-6.92,9.22-9.77-.21,2.32-13.01,4.25-18.08,1.92-5.05-9.74-5.24,4.59-10.7,1.62-.61,7.97-16.38,7.78-19.73-.02-.35,2.46-7.39,2.8-8.28C26.17,1.95,36.76-.06,43.07.44c4.08.32,9.64,1.25,13.75,2.91,5.92,2.4,19.81,6.13,15.25,15.34-4.28,8.65-19.28,10.46-23.4,12.9-3.69,2.18-22.25,5.92-22.85,7.5h0Z"/></g></g></svg>