<?xml version="1.0" encoding="UTF-8"?><svg id="Layer_2" xmlns="http://www.w3.org/2000/svg" viewBox="0 0 536.46 189.54"><defs><style>.cls-1,.cls-2{fill:#fdfdfd;}.cls-3{fill:#d8dfe9;}.cls-3,.cls-4,.cls-2,.cls-5,.cls-6,.cls-7{fill-rule:evenodd;}.cls-4{fill:#b1883f;}.cls-5{fill:#ec3237;}.cls-6{fill:#e8363b;}.cls-8{fill:none;stroke:#ec3237;stroke-miterlimit:22.93;stroke-width:.74px;}</style></defs><g id="Layer_2-2"><g id="Layer_1-2"><g><path class="cls-2" d="m186.11,60.69l-112.31,2.27c-17.83-20.68-39.41-50.12-5.12-58.27l331.17.59c17.41,2.61,36.67,15.62,44.53,22.49,3.84,21.75-18,33.9-41.97,34.94l50.62,27,.38,12.53,29.74-.41,46.31,1.87,5.23,9.93-8.94,17.69-25.09,4.47-21.21,22.5-24.58-.02-5.97-19.33-19.33,19.59-127.14-1.98-68.86,26.98-28.3-3.07.85-31.72-26.69,9.42-13.3-7.56-84.14,3.93c.54,9.09-10.99,33.7-47.48,2.21-8.34,8.55-23.32,15.88-30.68,2.29l5.33-44.61c3.24-2.94,11.64-10.07,14.88-13.01,12.76-35,61.93-19.68,73.34-1.29l44.2,2.23,1.33-6.37,43.2-35.28h0Z"/><path class="cls-6" d="m206.53,12.04l181.33-.07s10.86-.48,16.5,2.5l22.24,12.85c3.39,1.67,5.76,3.94,4.45,7.65-1.49,4.18-6.43,5.62-6.43,5.62l-48.19,16.68s-7.6,2.51-2.45,4.66,64.56,29.14,64.56,29.14c6.95,3.46,2.92,7.77-5.49,7.77l-60.37.03s-15.25.37-21.97-4.05c-6.66-4.3-46.07-29.98-46.07-29.98-3.38-2.63-7.18-10.52,5.65-13.99l54.76-13.75c.13-.04.13-.26-.03-.26l-98.71.05c-13.75-8.31-28.73-18.8-59.74-24.51-.29-.01-.37-.33-.03-.33h0Z"/><path class="cls-7" d="m69.67,11.98l111.74-.05c18.98,0,56.46,14.65,83.29,32.58l31.36,20.96c26.83,17.93,33.25,32.61,14.27,32.62l-160.22.08,35.12-28.34,6.45,1.91,41.11-.02c9.06,0,8.42-5.69-1.44-12.64l-11.52-8.12c-9.85-6.95-28.81-11.19-37.87-11.18l-92.79.04c-4.33,0-7.99,3.26-9.63,5.29-23.09-16.52-27.78-33.12-9.88-33.13h.01Z"/><path class="cls-7" d="m291.64,128.45l-2.39,3.3,8.64-3.3h35.72c5.16.94,9.12,4.21-1.26,14.39l-21.82.16,8.06-8.22h-31.13l-10.6,13.84s-6.98,6.92-25.99,6.06l18.8-26.23h21.97Z"/><polygon class="cls-7" points="426.74 142.76 408.46 142.97 419.05 128.45 437.05 128.45 426.74 142.76"/><polygon class="cls-7" points="475.61 142.54 461.55 142.32 471.04 128.42 485.17 128.54 475.61 142.54"/><path class="cls-7" d="m389.72,133.65h-25.07c-2.82,0-6.12,1.01-7.35,2.25s.07,2.25,2.89,2.25h25.07c2.82,0,6.12-1.01,7.35-2.25s-.07-2.25-2.89-2.25h0Zm-32.49-5.03c-9.93,0-25.06,14.58-9.47,14.58h47c8.06,0,16.8-7.92,19.24-14.74-18.95,0-37.8.16-56.77.16Z"/><path d="m216.41,176.78c.69.17,1.42.3,2.19.42,5.37.77,11.17,0,16.74-1.8,6.35-2.03,12.38-5.35,17.17-9.14,4.19-3.32,9.4-4.25,14.98-5.24,6.41-1.14,13.33-2.38,19.04-7.69.08-.08.16-.15.26-.21,13.82-9.44,14.76-8.05,17.05-4.65.92,1.36,2.24,3.32,8.44,3.27,2.2-.02,4.47.08,6.81.19,6.72.29,14.01.61,19.46-1.79h0c.49-.21,1.08-.22,1.61.02,3.06,1.42,16.18,2.15,29.9,2.26,14.9.12,30.31-.52,34.26-1.82h0c.47-.15,1.01-.13,1.48.11,3.94,1.95,11.12,1.47,17.09,1.08,2.03-.14,3.93-.26,5.68-.28,4.99-.06,8.71-5.31,11.84-9.73,3-4.24,5.56-7.84,9.25-7.12,5.4,1.06,5.09,4.73,4.76,8.7-.07.78-.13,1.58-.14,2.22-.04,2.8.95,5.38,7.97,5.49l13.87.21c6.67.1,12.55-9.34,16.91-16.33,2.98-4.78,5.35-8.58,7.98-8.58,2.87,0,5.59.09,8,.17,10.78.37,14.48.49,22.12-11.23.92-1.41,1.33-2.92,1.33-4.42s-.38-2.87-1.07-4.14c-.69-1.28-1.69-2.42-2.93-3.3-1.55-1.1-3.49-1.77-5.65-1.77-23.87,0-39.48.23-49.98.38-11.64.17-17.16.25-19.67-.17-4.61-.78-3.76-2.24-2.14-5,.9-1.54,2.37-4.04.41-7.98-2.1-4.22-18.4-11.26-35.88-18.8-5.64-2.44-11.41-4.92-17.34-7.62-1.65-.75-2.27-1.15-1.66-2.6.35-.84.84-.98,1.64-1.2.16-.05.36-.1.48-.14l29.02-9.41c.06-.02.11-.05.17-.06,3.36-1.08,7.58-4.12,10.79-7.98,2-2.41,3.59-5.12,4.28-7.84.66-2.58.5-5.17-.91-7.5-1.08-1.78-2.9-3.46-5.67-4.92-3.43-1.81-6.68-3.7-9.78-5.5-10.72-6.22-19.63-11.4-33.12-10.99-.1.02-.21.03-.32.03h-182.55c-1.45,0-2.82.36-4.08.97-1.43.69-2.71,1.7-3.8,2.87-.43.53-1.17.8-1.91.63-4.15-.94-11-4.94-19.85-4.94-36.13.02-72.26.24-108.39.24-6.78,0-11.9,3.95-15.33,6.53-2.72,2.04-4.39,4.78-4.98,8-.62,3.35-.1,7.22,1.58,11.38,3.24,8.03,10.72,17.04,22.67,25.43,2.96,2.09,5.74,2.16,8.26,1.24,2.75-1.01,5.32-3.16,7.58-5.33.34-.38.85-.62,1.43-.62h90.54c4.28,0,10.33,1.41,16.26,3.44,6.29,2.16,12.51,5.04,16.36,7.69.49.31.81.83.81,1.42,0,.95-.83,1.72-1.85,1.72h-20.18c-.09,0-.18,0-.27-.02-1.06-.15-2.13-.36-3.22-.59-3.81-.77-7.86-1.59-11.02.92l-34.93,27.68c-1.1.88-1.9,1.91-2.4,3.02-.54,1.18-.77,2.46-.74,3.74,0,.07,0,.13,0,.19,0,.95-.83,1.72-1.85,1.72h-32.09c-.16,0-.33-.02-.5-.07-.83-.21-1.57-.43-2.28-.63-2.68-.77-4.94-1.43-8.08-.98-.93.2-1.89-.29-2.19-1.15-.62-1.81-1.6-3.48-2.82-4.99-1.36-1.69-3.01-3.18-4.77-4.47-.06-.04-.12-.08-.19-.12-1.64-1.19-3.54-2.29-5.52-3.23-1.99-.95-4.07-1.73-6.09-2.3-.04,0-.07-.02-.11-.03-1.24-.36-2.6-.8-3.98-1.25-3.84-1.24-7.88-2.55-11.65-2.68h-.1c-.07,0-.15,0-.22-.01-5.12-.1-10.08.03-14.69,1.07-4.51,1.02-8.74,2.93-12.55,6.39-.02.03-.05.05-.08.08-.04.03-.07.06-.11.09-1,.92-1.88,1.9-2.63,2.96-.74,1.04-1.36,2.15-1.83,3.34-.01.04-.03.08-.04.12,0,.02-.02.05-.03.07l-.94,3.28h0s-.03.09-.04.13c-.04.1-.09.2-.15.3l-1.42,3.05h0c-.25.55-.81.95-1.5,1.03-2.48.25-5.02,1.47-7.27,3.25-2.22,1.75-4.14,4.03-5.45,6.49-1.27,2.39-1.95,4.91-1.73,7.22.13,1.35.57,2.63,1.39,3.76h0c.36.5.43,1.16.12,1.73-.89,1.65-1.42,3.36-1.45,5.05-.03,1.53.34,3.07,1.2,4.55.32.53.32,1.21-.06,1.76-5.02,7.26-6.49,12.96-5.82,17.18.37,2.32,1.4,4.18,2.84,5.6,1.45,1.43,3.33,2.41,5.36,2.96,3.99,1.08,8.56.5,11.79-1.69.07-.07.14-.13.22-.19,1.85-1.32,4.12-5.03,5.46-7.22.29-.48.55-.9.69-1.11h.01c.53-.82,1.66-1.07,2.53-.59l3.53,1.99h0c.07.04.14.08.2.13,1.09.58,2.44,1.3,3.39,2.06.05.04.1.08.15.12,4.15,3.53,9.92,5.91,15.24,8.11,1.77.73,3.49,1.44,5.17,2.2.03,0,.07.03.1.04.07.03.15.07.21.11,3.07,1.4,6.04,1.48,8.64.66,2.32-.73,4.36-2.18,5.94-4.04,1.6-1.9,2.72-4.22,3.14-6.67.48-2.75.07-5.67-1.5-8.31-.87-1.45-.72-2.42.34-3.11,1.08-.7,2.26-.23,3.99.44,1.85.72,4.69,1.83,7.55,1.89,4.91.1,8.53,1.24,12.13,2.37,7.82,2.45,15.58,4.88,37.41-5.35,1-.47,2.01,0,3.62.71,3.93,1.77,13.36,6.01,23.36,2.34h0c1.47-.53,2.11.2,3.15,1.36,2.34,2.63,9.18,10.3,32.08-4.89.03-.03.07-.05.11-.08,1.56-1.04,4.51-.56,6.91.81.9.51,1.75,1.16,2.44,1.88.75.8,1.32,1.7,1.56,2.68.35,1.42.06,2.9-1.25,4.29-1.96,2.1-3.51,4.71-4.44,7.46-.84,2.49-1.17,5.07-.84,7.46.32,2.31,1.26,4.47,2.97,6.2,1.15,1.16,2.66,2.15,4.58,2.88.06.02.12.04.19.06.56.21,1.17.39,1.82.55h0v-.03Zm.42,12.43c-.91-.13-1.76-.29-2.56-.48-.73-.18-1.41-.38-2.04-.6-.08-.02-.15-.04-.23-.07h0c-2.55-.93-4.58-2.25-6.14-3.83-2.25-2.28-3.49-5.09-3.9-8.09-.38-2.75-.06-5.65.81-8.43-.03-.18-.06-.37-.09-.55-.4-2.91-.02-6,.97-8.93.45-1.33,1.02-2.63,1.71-3.87-.92-.44-1.71-.66-1.97-.48-.04.03-.09.06-.13.08-25.73,17.06-34.22,7.58-37.14,4.31-11.12,3.59-21.1-.9-25.34-2.81-.61-.27.28-1.04-.35-.74-23.27,10.91-31.78,8.24-40.36,5.55-3.36-1.05-6.73-2.11-11.05-2.2-2.32-.05-4.5-.6-6.32-1.2-.14.49-.29.98-.47,1.46.43,1.99.44,4,.1,5.95-.52,3.03-1.9,5.9-3.89,8.25-2.01,2.38-4.65,4.24-7.68,5.19-3.55,1.12-7.6,1.01-11.73-.95-.05-.02-.1-.05-.15-.08-1.52-.69-3.23-1.39-4.98-2.11-5.56-2.29-11.58-4.78-16.16-8.63-.04-.03-.07-.05-.11-.08h0c-.7-.58-1.95-1.24-2.94-1.77l-.2-.1c-.11-.06-.22-.13-.31-.21l-1.63-.92c-1.44,2.34-3.66,5.85-5.87,7.59-.08.08-.16.16-.26.23-.03.02-.07.05-.1.07-4.18,2.96-10.12,3.78-15.27,2.39-2.66-.72-5.12-2.02-7.04-3.91-1.94-1.91-3.33-4.39-3.81-7.46-.39-2.47-.19-5.33.79-8.57-.03-.14-.05-.27-.07-.41-.66-4.16.35-9.42,3.97-15.75.11-1.59.53-3.16,1.2-4.67-.13-.42-.23-.85-.31-1.27-.54-1.15-.85-2.37-.97-3.63-.21-2.25.21-4.61,1.11-6.9-.2-.68-.33-1.38-.39-2.08-.28-2.96.55-6.12,2.11-9.05,1.53-2.87,3.78-5.54,6.39-7.6,2.48-1.95,5.3-3.36,8.18-3.89l1.08-2.32s.01-.03.02-.05l.94-3.27c.04-.13.09-.26.16-.38.57-1.42,1.3-2.73,2.17-3.96.92-1.28,1.99-2.48,3.22-3.6.01,0,.02-.01.03-.02,4.37-3.99,9.21-6.19,14.38-7.35,5.06-1.14,10.38-1.28,15.85-1.17h.09c4.38.12,8.74,1.54,12.87,2.87,1.26.41,2.51.81,3.79,1.18h0s.04.01.06.02h0c2.23.61,4.56,1.49,6.81,2.56,2.11,1,4.13,2.16,5.9,3.43.09.05.19.11.27.17.02.02.04.03.06.05,2.05,1.49,3.97,3.22,5.55,5.18,1.16,1.43,2.14,2.99,2.87,4.67,3.25-.24,5.62.45,8.38,1.24.62.18,1.27.37,1.93.54h30.13c.13-1.21.45-2.41.97-3.56.73-1.59,1.85-3.07,3.41-4.3l34.48-27.31h-84.64c-2.45,2.31-5.27,4.56-8.44,5.72-3.67,1.34-7.67,1.25-11.88-1.71-12.56-8.83-20.48-18.41-23.95-27.02-1.92-4.76-2.5-9.24-1.77-13.18.16-.85.37-1.67.65-2.46-.33-2.3-.3-4.48.07-6.52.75-4.06,2.87-7.53,6.32-10.11,4.08-3.06,10.01-7.3,17.7-7.3l108.49.09c10.36,0,14.72,3.5,19.85,4.49,1.24-1.2,2.66-2.23,4.22-2.99,1.79-.86,3.74-1.37,5.8-1.37h182.81c.08,0,.17-.01.26-.01,14.71-.49,24.11,4.97,35.42,11.53,3,1.74,6.14,3.57,9.68,5.43,3.4,1.79,5.69,3.93,7.09,6.25,1.91,3.16,2.14,6.59,1.29,9.96-.18.71-.41,1.41-.68,2.1.62,2.25.54,4.58-.04,6.88-.82,3.23-2.66,6.39-4.97,9.18-3.58,4.3-8.37,7.73-12.33,9.07-.07.03-.14.06-.21.08h0l-14.01,4.54c.92.4,1.84.79,2.75,1.19,18.16,7.83,35.09,15.14,37.77,20.52,2.45,4.93,1.09,8.21-.11,10.37.11.29.21.57.29.84,2.71.21,8.08.13,17.86-.01,10.89-.16,27.1-.4,50.16-.4,3.02,0,5.73.95,7.91,2.49,1.68,1.19,3.05,2.75,4,4.5.95,1.76,1.48,3.71,1.48,5.68,0,1.78-.42,3.58-1.33,5.29.4,1.19.61,2.44.61,3.69,0,2.1-.58,4.23-1.87,6.2-8.78,13.47-13.05,13.32-25.48,12.9-2.22-.07-4.74-.16-7.89-.16-.51,0-2.4,3.05-4.8,6.88-.81,3.48-5.79,7.44-6.44,10.3-1.81,9.95,3.93,23.4-7.11,23.91l-225.92-.73c-5.12,4.05-14.02,6.39-20.84,8.57-6.12,1.96-12.54,2.81-18.55,1.95h-.02Z"/><polygon class="cls-7" points="305.03 126.01 322.32 119.4 347.35 119.4 331.57 126.01 305.03 126.01"/><polygon class="cls-7" points="275.76 119.4 297.79 119.4 293.01 126.01 271.02 126.01 275.76 119.4"/><path class="cls-7" d="m420.3,126.01l4.83-6.62h17.26l-2.61,3.61s15.36-5.09,28.92-3.18c5.14.51,1.91,4.62-1.07,6.19h-47.33Z"/><path class="cls-7" d="m414.65,126.01c.19-3.76-2.28-6.62-8.94-6.62h-47.52l-7.77,6.62h64.23,0Z"/><path class="cls-4" d="m157.78,113.83h.02c-.19-.06-.25-.09-.02,0"/><path class="cls-3" d="m86.36,107.61h7.49c-1.27.36-2.6.81-3.98,1.33-1.95.73-4.03,1.6-6.12,2.52.97-1.04,1.8-2.21,2.45-3.51.06-.12.11-.23.16-.34h0Z"/><path class="cls-3" d="m26.82,115.53h-7.31l4.85-7.92h5.24c-.51,1.9-1.46,4.59-2.51,7.25l-.27.68h0Z"/><path class="cls-3" d="m50.72,115.53h-7.04c.61-.87,1.28-1.74,1.93-2.57,1.45-1.87,2.8-3.61,3.48-5.35h19.49c-.13.12-.28.24-.46.37-.63.48-3.52,1.88-6.66,3.3-3.79,1.72-7.75,3.39-8.52,3.57-.33.07-1.11.33-2.21.69h-.01Z"/><path class="cls-3" d="m153.39,115.53h-10.07c.14-.61.16-1.23.03-1.84-.3-1.36-1.16-2.4-2.86-2.86-1.46-.4-3.86-.24-7.69.89-1.58.47-4.85,1.73-7.46,2.74-.78.3-1.49.58-2.36.91-.14.05-.28.11-.42.16h-22.41c1.12-.63,2.2-1.36,2.92-2.18,1.61-1.83,1.92-3.78-.26-5.7l-.05-.04h56.87c-.78.39-1.6.84-2.33,1.32-1.48.97-2.76,2.15-3.26,3.48-.48,1.27-.68,2.29-.65,3.12h0Z"/><path class="cls-3" d="m242.67,115.53h-36.18c-.11-.65-.35-1.24-.71-1.77-.7-1.03-1.77-1.69-3.17-1.96-1.58-.31-3.71-.1-6.35.69-.86.26-3.12,1.45-5.97,3.04h-21.96c1.18-.9,2.25-1.88,3.09-2.84.83-.94,1.5-1.88,1.9-2.74.37-.8.56-1.58.53-2.33h81.56c-1.49.75-3.05,1.61-4.59,2.53-2.85,1.7-5.72,3.63-8.15,5.39h0Z"/><path class="cls-3" d="m472.18,126.11l7.28-10.58h-213.49c2.26-2.27,3.64-4.82,2.73-7.43-.03-.09-.06-.19-.1-.28l-.09-.21h254.48l-5.69,7.92h-23.5l-7.24,10.58h-14.38Z"/><path class="cls-5" d="m39.45,104.7c1.96-.84,5.73-3.42,7.2-.52,1.51,3-3.88,7.23-6.48,12.07,0,.02-4.58,6.14-2.74,5.89,3.43-.47,15.14-4.57,16.06-4.78,1.73-.39,14.43-5.98,16.2-7.34,10.65-8.19-20.05-14.33-27.03-11.49-3.06,1.24-4.96,6.42-3.21,6.17h0Zm198.52,44.71c-.54,0-24.21,15.84-15.77,16.02,7.27.15,22.26-8.56,17-15.4-.32-.41-.72-.61-1.23-.62h0Zm-12.13-18.1c3.78-2.34,9.37-5.46,12.45-8.96,2.55-2.89,25.49-19.49,27.91-13.57,1.87,4.58-9.91,10.42-13.39,12.47-6.23,3.67-11.47,5.19-12.25,10.58-.37,2.58,1.8,6.25,4.02,7.88,3.53-.89,8.48-4.82,13.03-7.71l.71,3.92c-1.97,1.22-9.76,6.06-10.98,7.7-.85,1.14,11.1,10.8-10.62,21.75-7.43,3.75-14.39,6.21-20.53,3.86-4.85-1.85.61-9.87,4.16-12.84,5.9-4.93,10.36-6.91,13.33-9.28.59-.47.95-.89,1.09-1.25-2.18-3.71-5.37-7.07-4.63-11.64.03-.17-.03-.43-.15-.81-18.2,9.73-15.69,5.75-20.14-1.13-2.06-3.17-2.2-2.84-7.1-.34-3.05,1.55-4.68,1.44-6.45,2.96-2.83,2.44-13.25,9.13-17.98,9.03-6.75-.15,5.86-12.11,6.96-14.07.65-1.14,5.14-5.63-.29-3.31-7.31,3.13-21.36,13.41-28.22,13.27-10.59-.23-5.52-3.17-9.7-9.43-1.24-1.85-6.47,1.86-8.25,2.94-.02.4-19.42,8.24-20.98,8.61-5.64,1.32-12,1.94-16.37-2.51-3.82-3.88,4.63-8.91-2.33-5.07-8,4.4-19.25,5.7-16.43-2.92.19-.57.22-1.06-.16-1.61-1.79,1.08-15.74,8.02-17.33,8.62-2.47.93-14.29,5.32-11.59-1.81,2.18-5.75,5.97-.67,3.92-8.92.76-.42,1.45-1.28,2.37-1.82,2.8-1.63,5.85-1.73,8.39-3.96.29-.26,29.05-15.62,32.79-12.33,2.62,2.3-5.6,5.18-6.34,5.6-8.36,4.67-20.12,10.84-27.75,16.42l.27.38c6.07-1.21,30.77-17.32,27.43-8.11-.89,2.44-3.95,7.52.83,7.62,1.64.03,4.53-1.96,6.09-2.8,0-.02-.01-.04-.02-.06,2.33-1.17,3.05-2.34,6.7-3.66,5.42-1.97,10.33-5.21,15.58-7.2,2.43-.92,7.61-2.99,9.64-3.58,12.55-3.71,5.29,4.14,4.62,4.62-1.72,1.23-8.33,3.12-12.33,4.95-3.04,1.39-15.64,5.41-14.56,11.23.87,4.67,12.66.6,14.92-.24,10.94-4.07,8.72-4.57,19.54-9.96,4.69-2.33,9.44-7.06,13.35-4.33,4.67,3.26-8.95,21.33,13.83,8.2,3.89-2.24,21.68-12.96,24.11-13.69,7.21-2.16,9.09.62,4.41,6.89-1.52,2.03-9.11,10-8.4,10.97,4.22-1.51,19.09-14.16,25.93-10.26,3.46,1.97-.2,11.07,5.59,9.36.43-.13.87-.31,1.31-.58v-.03h0v-.04Zm-56.38-24.77c6.13.13-5.12,10.67-9.62,10.07-2.39-.32-4.77.29-3.4-3.3.7-1.85,5.33-3.99,6.89-4.51,2.54-.85,2.66-2.34,6.13-2.26h0Zm-131.85,20.66c-1.19,3.13,12.05,11.83,14.69,13.99,4.13,3.36,9.91,7.5,14.63,10.24,2.63,1.52,1.08,8.56-2.68,6.83-4.86-2.22-14.23-5.52-18.52-9.2-3-2.58-7.91-4.49-10.97-6.97-7.78-6.3-6.82-5.46-11.9,2.44-1.18,1.84-4.67,9.26-6.93,9.22-9.77-.21,2.32-13.01,4.25-18.08,1.92-5.05-9.74-5.24,4.59-10.7,1.62-.62,7.97-16.38,7.78-19.73-.02-.35,2.46-7.39,2.8-8.28,2.61-6.89,13.2-8.9,19.51-8.4,4.08.32,9.64,1.25,13.75,2.91,5.92,2.4,19.81,6.13,15.25,15.34-4.28,8.65-19.27,10.46-23.39,12.9-3.69,2.19-22.25,5.92-22.85,7.5h-.01Z"/><path class="cls-8" d="m39.52,104.72c1.96-.83,5.73-3.42,7.2-.52,1.51,3-3.88,7.23-6.48,12.07,0,.02-4.58,6.14-2.74,5.89,3.43-.47,15.14-4.57,16.06-4.78,1.73-.39,14.44-5.98,16.2-7.34,10.65-8.2-20.05-14.33-27.03-11.49-3.06,1.24-4.96,6.42-3.21,6.17h0Zm198.53,44.72c-.54,0-24.21,15.84-15.77,16.02,7.27.16,22.26-8.56,17-15.4-.32-.41-.72-.61-1.23-.62h0Zm-12.13-18.1c3.78-2.34,9.37-5.46,12.45-8.96,2.55-2.89,25.49-19.49,27.9-13.58,1.87,4.57-9.91,10.42-13.39,12.47-6.23,3.67-11.47,5.19-12.25,10.58-.37,2.58,1.8,6.25,4.02,7.88,3.53-.89,8.48-4.82,13.03-7.71l.71,3.92c-1.97,1.22-9.76,6.06-10.98,7.7-.85,1.14,11.1,10.8-10.62,21.75-7.43,3.75-14.39,6.21-20.53,3.86-4.85-1.85.61-9.87,4.16-12.84,5.9-4.93,10.36-6.91,13.33-9.28.59-.47.95-.89,1.09-1.25-2.18-3.7-5.37-7.07-4.63-11.64.03-.17-.03-.43-.15-.81-18.2,9.73-15.69,5.75-20.14-1.13-2.06-3.17-2.2-2.84-7.1-.34-3.05,1.55-4.68,1.44-6.45,2.96-2.83,2.44-13.25,9.13-17.98,9.03-6.75-.15,5.86-12.11,6.97-14.07.65-1.15,5.14-5.63-.29-3.31-7.31,3.13-21.36,13.41-28.22,13.27-10.59-.23-5.52-3.17-9.7-9.43-1.24-1.85-6.47,1.87-8.25,2.94-.02.4-19.42,8.24-20.98,8.61-5.63,1.32-12,1.94-16.37-2.51-3.82-3.88,4.63-8.91-2.33-5.07-8,4.4-19.25,5.7-16.43-2.92.19-.57.22-1.06-.16-1.61-1.79,1.08-15.74,8.02-17.33,8.62-2.47.93-14.29,5.32-11.59-1.81,2.18-5.75,5.97-.67,3.92-8.92.76-.42,1.45-1.28,2.37-1.82,2.8-1.63,5.85-1.73,8.39-3.96.29-.26,29.05-15.62,32.79-12.33,2.62,2.3-5.6,5.18-6.34,5.6-8.36,4.67-20.12,10.84-27.75,16.42l.27.38c6.07-1.21,30.78-17.32,27.43-8.11-.89,2.44-3.95,7.52.83,7.62,1.64.03,4.53-1.96,6.09-2.8,0-.02-.01-.04-.02-.06,2.33-1.17,3.05-2.34,6.7-3.66,5.42-1.97,10.33-5.21,15.58-7.2,2.43-.92,7.61-2.99,9.64-3.59,12.55-3.71,5.29,4.14,4.62,4.62-1.72,1.23-8.33,3.12-12.33,4.95-3.04,1.39-15.64,5.41-14.56,11.23.87,4.67,12.66.6,14.92-.24,10.94-4.07,8.72-4.57,19.54-9.96,4.69-2.33,9.44-7.06,13.35-4.33,4.67,3.26-8.95,21.33,13.83,8.2,3.89-2.24,21.68-12.96,24.11-13.69,7.21-2.16,9.09.62,4.41,6.89-1.52,2.03-9.11,10-8.4,10.97,4.22-1.51,19.09-14.16,25.93-10.26,3.46,1.97-.2,11.07,5.59,9.36.43-.13.87-.31,1.31-.58v-.03h0v-.02Zm-56.38-24.77c6.13.13-5.12,10.67-9.62,10.07-2.39-.32-4.77.29-3.4-3.3.7-1.85,5.33-3.99,6.89-4.51,2.54-.85,2.66-2.34,6.13-2.26h0Zm-131.85,20.66c-1.19,3.13,12.05,11.83,14.69,13.99,4.13,3.36,9.91,7.5,14.63,10.24,2.63,1.52,1.08,8.56-2.68,6.83-4.86-2.22-14.23-5.52-18.52-9.2-3-2.58-7.91-4.49-10.97-6.97-7.78-6.3-6.82-5.46-11.9,2.44-1.18,1.84-4.67,9.27-6.92,9.22-9.77-.21,2.32-13.01,4.25-18.08,1.92-5.05-9.74-5.24,4.59-10.7,1.62-.61,7.97-16.38,7.78-19.73-.02-.35,2.46-7.39,2.8-8.28,2.61-6.89,13.2-8.9,19.51-8.4,4.08.32,9.64,1.25,13.75,2.91,5.92,2.4,19.81,6.13,15.25,15.34-4.28,8.65-19.28,10.46-23.4,12.9-3.69,2.18-22.25,5.92-22.85,7.5h0Z"/><path class="cls-1" d="m461.95,168.96h14.85v1.7h-14.85v-1.7Zm5.61-8.25h3.37l10.41,12.75h-4.27l-7.82-10.29-7.82,10.29h-4.27l10.41-12.75h-.01Zm-14.29,12.75h-3.96v-12.75h3.96v12.75Zm-24.76-1.7h16.15v1.7h-16.15v-1.7Zm-1.98-11.05h3.96v12.75h-3.96v-12.75Zm-23.66,8.25h14.85v1.7h-14.85v-1.7Zm5.61-8.25h3.37l10.41,12.75h-4.27l-7.82-10.29-7.82,10.29h-4.27l10.41-12.75h-.01Zm-23.22,6.96l3.94-.4,7.22,6.19h-4.7l-6.47-5.79h.01Zm-9.41-6.97h3.96v12.76h-3.96v-12.76Zm1.73,5.66h9.62c.76,0,1.42-.08,2-.25.58-.16,1.03-.39,1.35-.7.31-.3.47-.65.47-1.04s-.16-.74-.47-1.04c-.32-.3-.77-.54-1.35-.7-.57-.16-1.24-.25-2.01-.25h-9.62v-1.7h9.47c1.63,0,3.06.15,4.3.46,1.23.3,2.19.73,2.87,1.29s1.02,1.2,1.02,1.93-.34,1.37-1.03,1.93-1.65.99-2.88,1.29c-1.24.3-2.66.46-4.28.46h-9.47v-1.7h0v.02Zm-25.52-5.66h19.92v1.7h-19.92v-1.7Zm7.98,1.04h3.96v11.7h-3.96v-11.7Zm-20.09,11.84c-1.36,0-2.65-.06-3.86-.18-1.22-.12-2.35-.29-3.41-.53-1.05-.24-2.04-.52-2.95-.88l2.46-1.37c1.07.42,2.26.74,3.55.95,1.29.21,2.7.31,4.21.31,2.04,0,3.62-.17,4.75-.51s1.69-.83,1.69-1.45h0c0-.45-.25-.8-.76-1.07-.52-.26-1.17-.45-1.98-.58-.81-.12-1.85-.24-3.13-.35h-.26l-.29-.02c-1.89-.15-3.43-.31-4.61-.5-1.19-.19-2.2-.52-3.04-1.01-.84-.49-1.26-1.18-1.26-2.08h0c0-.8.39-1.47,1.17-2.03s1.93-.98,3.42-1.28c1.51-.29,3.31-.44,5.42-.44,1.01,0,2,.05,2.98.15.98.1,1.94.25,2.89.44s1.88.44,2.8.74l-2.25,1.42c-1.07-.36-2.14-.62-3.21-.8-1.07-.18-2.13-.27-3.21-.27-1.93,0-3.43.17-4.5.52s-1.6.84-1.6,1.48h0c0,.45.27.79.82,1.04.55.25,1.24.44,2.06.55.82.12,1.96.25,3.43.38.05,0,.1,0,.15,0,.04,0,.09,0,.15.02.07,0,.13,0,.21.02.08,0,.15,0,.21,0,1.71.16,3.13.35,4.28.56,1.15.22,2.11.57,2.87,1.05.77.48,1.15,1.14,1.15,1.98v.02c0,.78-.41,1.44-1.22,2-.82.55-2,.97-3.54,1.26-1.55.29-3.41.43-5.6.43h.01Zm-24.24.01c-2.09,0-3.87-.19-5.35-.56s-2.61-.91-3.39-1.62c-.78-.71-1.17-1.57-1.17-2.56v-8.14h3.96v8.2c0,.93.52,1.65,1.56,2.16,1.03.51,2.5.76,4.38.76s3.37-.25,4.41-.76c1.05-.51,1.56-1.23,1.56-2.16v-8.2h3.96v8.14c0,1-.39,1.86-1.17,2.56-.78.71-1.91,1.25-3.4,1.62-1.48.37-3.28.56-5.37.56h.02Zm-31.61-4.63h14.85v1.7h-14.85v-1.7Zm5.61-8.25h3.37l10.41,12.75h-4.27l-7.82-10.29-7.82,10.29h-4.27l10.41-12.75h-.01Z"/></g></g></g></svg>